{
  "source": "C:\\Users\\Peter\\Desktop\\stuff\\MIUN\\quantitative_research\\video_compression\\videos\\BVI-HD\\BVI-HD_CDVL_videos\\ORIG\\PaintingTilting_1920x1080_60fps.mp4",
  "output": "C:\\Users\\Peter\\Desktop\\stuff\\MIUN\\quantitative_research\\video_compression\\compressed_videos\\BVI-HD\\hevc\\1.5\\PaintingTilting_1920x1080_60fps_hevc.mp4",
  "codec": "hevc",
  "ok": "Input #0, mov,mp4,m4a,3gp,3g2,mj2, from 'C:\\Users\\Peter\\Desktop\\stuff\\MIUN\\quantitative_research\\video_compression\\videos\\BVI-HD\\BVI-HD_CDVL_videos\\ORIG\\PaintingTilting_1920x1080_60fps.mp4':\n  Metadata:\n    major_brand     : isom\n    minor_version   : 512\n    compatible_brands: isomiso2avc1mp41\n    encoder         : Lavf54.28.101\n  Duration: 00:00:05.00, start: 0.000000, bitrate: 667707 kb/s\n  Stream #0:0[0x1](und): Video: h264 (High 4:4:4 Predictive) (avc1 / 0x31637661), yuv420p(progressive), 1920x1080, 667702 kb/s, 60 fps, 60 tbr, 60 tbn (default)\n    Metadata:\n      handler_name    : VideoHandler\n      vendor_id       : [0][0][0][0]\n[out#0/mp4 @ 000001aa8be5ac00] Codec AVOption b:a (set bitrate (in bits/s)) has not been used for any stream. The most likely reason is either wrong type (e.g. a video option with no video streams) or that it is a private option of some decoder which was not actually used for any stream.\nStream mapping:\n  Stream #0:0 -> #0:0 (h264 (native) -> hevc (libx265))\nPress [q] to stop, [?] for help\n[libx265 @ 000001aa8be60f00] Unknown option: \"aq-mode.\nx265 [info]: HEVC encoder version 4.1+190-8f11c33ac\nx265 [info]: build info [Windows][GCC 15.1.0][64 bit] 10bit\nx265 [info]: using cpu capabilities: MMX2 SSE2Fast LZCNT SSSE3 SSE4.2 AVX FMA3 BMI2 AVX2\nx265 [info]: Main 10 profile, Level-4.1 (Main tier)\nx265 [info]: Thread pool created using 12 threads\nx265 [info]: Slices                              : 1\nx265 [info]: frame threads / pool features       : 3 / wpp(17 rows)\nx265 [info]: Coding QT: max CU size, min CU size : 64 / 8\nx265 [info]: Residual QT: max TU size, max depth : 32 / 1 inter / 1 intra\nx265 [info]: ME / range / subpel / merge         : star / 57 / 3 / 3\nx265 [info]: Keyframe min / max / scenecut / bias  : 25 / 250 / 40 / 5.00 \nx265 [info]: Lookahead / bframes / badapt        : 25 / 4 / 2\nx265 [info]: b-pyramid / weightp / weightb       : 1 / 1 / 0\nx265 [info]: References / ref-limit  cu / depth  : 4 / on / on\nx265 [info]: AQ: mode / str / qg-size / cu-tree  : 2 / 1.0 / 32 / 1\nx265 [info]: Rate Control / qCompress            : ABR-1500 kbps / 0.60\nx265 [info]: VBV/HRD buffer / max-rate / init    : 1500 / 1500 / 0.750\nx265 [info]: tools: rect limit-modes rd=4 psy-rd=2.00 rdoq=2 psy-rdoq=1.00\nx265 [info]: tools: rskip mode=1 signhide tmvp strong-intra-smoothing lslices=4\nx265 [info]: tools: deblock sao dhdr10-info\nOutput #0, mp4, to 'C:\\Users\\Peter\\Desktop\\stuff\\MIUN\\quantitative_research\\video_compression\\compressed_videos\\BVI-HD\\hevc\\1.5\\PaintingTilting_1920x1080_60fps_hevc.mp4':\n  Metadata:\n    major_brand     : isom\n    minor_version   : 512\n    compatible_brands: isomiso2avc1mp41\n    encoder         : Lavf62.3.100\n  Stream #0:0(und): Video: hevc (hev1 / 0x31766568), yuv420p10le(tv, progressive), 1920x1080, q=2-31, 1500 kb/s, 60 fps, 15360 tbn (default)\n    Metadata:\n      encoder         : Lavc62.11.100 libx265\n      handler_name    : VideoHandler\n      vendor_id       : [0][0][0][0]\n    Side data:\n      cpb: bitrate max/min/avg: 1500000/0/1500000 buffer size: 1500000 vbv_delay: N/A\nframe=    0 fps=0.0 q=0.0 size=       0KiB time=N/A bitrate=N/A speed=N/A elapsed=0:00:01.80    \nframe=    0 fps=0.0 q=0.0 size=       0KiB time=N/A bitrate=N/A speed=N/A elapsed=0:00:02.40    \nframe=    0 fps=0.0 q=0.0 size=       0KiB time=N/A bitrate=N/A speed=N/A elapsed=0:00:03.02    \nframe=    0 fps=0.0 q=0.0 size=       0KiB time=N/A bitrate=N/A speed=N/A elapsed=0:00:03.60    \nframe=    0 fps=0.0 q=0.0 size=       0KiB time=N/A bitrate=N/A speed=N/A elapsed=0:00:04.12    \nframe=    0 fps=0.0 q=0.0 size=       0KiB time=N/A bitrate=N/A speed=N/A elapsed=0:00:04.65    \nframe=    0 fps=0.0 q=0.0 size=       0KiB time=N/A bitrate=N/A speed=N/A elapsed=0:00:05.20    \nframe=    0 fps=0.0 q=0.0 size=       0KiB time=N/A bitrate=N/A speed=N/A elapsed=0:00:05.75    \nframe=    0 fps=0.0 q=0.0 size=       0KiB time=N/A bitrate=N/A speed=N/A elapsed=0:00:06.28    \nframe=    0 fps=0.0 q=0.0 size=       0KiB time=N/A bitrate=N/A speed=N/A elapsed=0:00:06.82    \nframe=    0 fps=0.0 q=0.0 size=       0KiB time=N/A bitrate=N/A speed=N/A elapsed=0:00:07.35    \nframe=    0 fps=0.0 q=0.0 size=       0KiB time=N/A bitrate=N/A speed=N/A elapsed=0:00:07.87    \nframe=    0 fps=0.0 q=0.0 size=       0KiB time=N/A bitrate=N/A speed=N/A elapsed=0:00:08.42    \nframe=    0 fps=0.0 q=0.0 size=       0KiB time=N/A bitrate=N/A speed=N/A elapsed=0:00:08.97    \nframe=    0 fps=0.0 q=0.0 size=       0KiB time=N/A bitrate=N/A speed=N/A elapsed=0:00:09.49    \nframe=    1 fps=0.1 q=49.5 size=       0KiB time=N/A bitrate=N/A speed=N/A elapsed=0:00:10.01    \nframe=    1 fps=0.1 q=49.5 size=       0KiB time=-00:00:00.01 bitrate=N/A speed=N/A elapsed=0:00:10.55    \nframe=    2 fps=0.2 q=51.0 size=       0KiB time=00:00:00.00 bitrate=N/A speed=   0x elapsed=0:00:11.07    \nframe=    4 fps=0.3 q=51.0 size=       0KiB time=00:00:00.03 bitrate=  10.6kbits/s speed=0.00287x elapsed=0:00:11.61    \nframe=    4 fps=0.3 q=51.0 size=       0KiB time=00:00:00.03 bitrate=  10.6kbits/s speed=0.00275x elapsed=0:00:12.12    \nframe=    5 fps=0.4 q=51.0 size=       0KiB time=00:00:00.05 bitrate=   7.0kbits/s speed=0.00395x elapsed=0:00:12.65    \nframe=    5 fps=0.4 q=51.0 size=       0KiB time=00:00:00.05 bitrate=   7.0kbits/s speed=0.00379x elapsed=0:00:13.17    \nframe=    5 fps=0.4 q=51.0 size=       0KiB time=00:00:00.05 bitrate=   7.0kbits/s speed=0.00365x elapsed=0:00:13.70    \nframe=    6 fps=0.4 q=51.0 size=       0KiB time=00:00:00.06 bitrate=   5.3kbits/s speed=0.00468x elapsed=0:00:14.23    \nframe=    7 fps=0.5 q=50.7 size=       0KiB time=00:00:00.08 bitrate=   4.2kbits/s speed=0.00564x elapsed=0:00:14.77    \nframe=    7 fps=0.5 q=50.7 size=       0KiB time=00:00:00.08 bitrate=   4.2kbits/s speed=0.00545x elapsed=0:00:15.29    \nframe=    7 fps=0.4 q=50.7 size=       0KiB time=00:00:00.08 bitrate=   4.2kbits/s speed=0.00527x elapsed=0:00:15.81    \nframe=    8 fps=0.5 q=51.0 size=       0KiB time=00:00:00.10 bitrate=   3.5kbits/s speed=0.00613x elapsed=0:00:16.31    \nframe=    8 fps=0.5 q=51.0 size=       0KiB time=00:00:00.10 bitrate=   3.5kbits/s speed=0.00594x elapsed=0:00:16.83    \nframe=    9 fps=0.5 q=51.0 size=       0KiB time=00:00:00.11 bitrate=   3.0kbits/s speed=0.00672x elapsed=0:00:17.36    \nframe=    9 fps=0.5 q=51.0 size=       0KiB time=00:00:00.11 bitrate=   3.0kbits/s speed=0.00653x elapsed=0:00:17.87    \nframe=    9 fps=0.5 q=51.0 size=       0KiB time=00:00:00.11 bitrate=   3.0kbits/s speed=0.00633x elapsed=0:00:18.41    \nframe=   10 fps=0.5 q=48.7 size=       0KiB time=00:00:00.13 bitrate=   2.6kbits/s speed=0.00704x elapsed=0:00:18.93    \nframe=   11 fps=0.6 q=48.9 size=       0KiB time=00:00:00.15 bitrate=   2.3kbits/s speed=0.00771x elapsed=0:00:19.44    \nframe=   11 fps=0.6 q=48.9 size=       0KiB time=00:00:00.15 bitrate=   2.3kbits/s speed=0.00751x elapsed=0:00:19.97    \nframe=   12 fps=0.6 q=48.0 size=       0KiB time=00:00:00.16 bitrate=   2.1kbits/s speed=0.00813x elapsed=0:00:20.50    \nframe=   13 fps=0.6 q=51.0 size=       0KiB time=00:00:00.18 bitrate=   1.9kbits/s speed=0.00871x elapsed=0:00:21.04    \nframe=   14 fps=0.6 q=45.5 size=       0KiB time=00:00:00.20 bitrate=   1.8kbits/s speed=0.00927x elapsed=0:00:21.57    \nframe=   14 fps=0.6 q=45.5 size=       0KiB time=00:00:00.20 bitrate=   1.8kbits/s speed=0.00906x elapsed=0:00:22.08    \nframe=   14 fps=0.6 q=45.5 size=       0KiB time=00:00:00.20 bitrate=   1.8kbits/s speed=0.00885x elapsed=0:00:22.60    \nframe=   15 fps=0.6 q=51.0 size=       0KiB time=00:00:00.21 bitrate=   1.6kbits/s speed=0.00936x elapsed=0:00:23.14    \nframe=   15 fps=0.6 q=51.0 size=       0KiB time=00:00:00.21 bitrate=   1.6kbits/s speed=0.00915x elapsed=0:00:23.67    \nframe=   16 fps=0.7 q=51.0 size=       0KiB time=00:00:00.23 bitrate=   1.5kbits/s speed=0.00964x elapsed=0:00:24.21    \nframe=   17 fps=0.7 q=50.0 size=       0KiB time=00:00:00.25 bitrate=   1.4kbits/s speed=0.0101x elapsed=0:00:24.77    \nframe=   17 fps=0.7 q=50.0 size=       0KiB time=00:00:00.25 bitrate=   1.4kbits/s speed=0.00988x elapsed=0:00:25.29    \nframe=   17 fps=0.7 q=50.0 size=       0KiB time=00:00:00.25 bitrate=   1.4kbits/s speed=0.00968x elapsed=0:00:25.83    \nframe=   18 fps=0.7 q=44.8 size=       0KiB time=00:00:00.26 bitrate=   1.3kbits/s speed=0.0101x elapsed=0:00:26.35    \nframe=   19 fps=0.7 q=45.8 size=       0KiB time=00:00:00.28 bitrate=   1.2kbits/s speed=0.0105x elapsed=0:00:26.87    \nframe=   20 fps=0.7 q=49.0 size=       0KiB time=00:00:00.30 bitrate=   1.2kbits/s speed=0.011x elapsed=0:00:27.39    \nframe=   20 fps=0.7 q=49.0 size=       0KiB time=00:00:00.30 bitrate=   1.2kbits/s speed=0.0107x elapsed=0:00:27.91    \nframe=   20 fps=0.7 q=49.0 size=       0KiB time=00:00:00.30 bitrate=   1.2kbits/s speed=0.0105x elapsed=0:00:28.46    \nframe=   20 fps=0.7 q=49.0 size=       0KiB time=00:00:00.30 bitrate=   1.2kbits/s speed=0.0104x elapsed=0:00:28.98    \nframe=   21 fps=0.7 q=49.0 size=       0KiB time=00:00:00.31 bitrate=   1.1kbits/s speed=0.0107x elapsed=0:00:29.52    \nframe=   21 fps=0.7 q=49.0 size=       0KiB time=00:00:00.31 bitrate=   1.1kbits/s speed=0.0105x elapsed=0:00:30.08    \nframe=   21 fps=0.7 q=49.0 size=       0KiB time=00:00:00.31 bitrate=   1.1kbits/s speed=0.0103x elapsed=0:00:30.59    \nframe=   22 fps=0.7 q=49.0 size=       0KiB time=00:00:00.33 bitrate=   1.1kbits/s speed=0.0107x elapsed=0:00:31.11    \nframe=   23 fps=0.7 q=44.2 size=       0KiB time=00:00:00.35 bitrate=   1.0kbits/s speed=0.0111x elapsed=0:00:31.63    \nframe=   24 fps=0.7 q=50.0 size=       0KiB time=00:00:00.36 bitrate=   1.0kbits/s speed=0.0114x elapsed=0:00:32.18    \nframe=   24 fps=0.7 q=50.0 size=       0KiB time=00:00:00.36 bitrate=   1.0kbits/s speed=0.0112x elapsed=0:00:32.71    \nframe=   24 fps=0.7 q=50.0 size=       0KiB time=00:00:00.36 bitrate=   1.0kbits/s speed=0.011x elapsed=0:00:33.27    \nframe=   24 fps=0.7 q=50.0 size=       0KiB time=00:00:00.36 bitrate=   1.0kbits/s speed=0.0109x elapsed=0:00:33.79    \nframe=   24 fps=0.7 q=50.0 size=       0KiB time=00:00:00.36 bitrate=   1.0kbits/s speed=0.0107x elapsed=0:00:34.36    \nframe=   24 fps=0.7 q=50.0 size=       0KiB time=00:00:00.36 bitrate=   1.0kbits/s speed=0.0105x elapsed=0:00:34.99    \nframe=   25 fps=0.7 q=50.0 size=       0KiB time=00:00:00.38 bitrate=   0.9kbits/s speed=0.0108x elapsed=0:00:35.60    \nframe=   25 fps=0.7 q=50.0 size=       0KiB time=00:00:00.38 bitrate=   0.9kbits/s speed=0.0106x elapsed=0:00:36.20    \nframe=   25 fps=0.7 q=50.0 size=       0KiB time=00:00:00.38 bitrate=   0.9kbits/s speed=0.0104x elapsed=0:00:36.78    \nframe=   26 fps=0.7 q=50.0 size=       0KiB time=00:00:00.40 bitrate=   0.9kbits/s speed=0.0107x elapsed=0:00:37.30    \nframe=   26 fps=0.7 q=50.0 size=       0KiB time=00:00:00.40 bitrate=   0.9kbits/s speed=0.0106x elapsed=0:00:37.83    \nframe=   27 fps=0.7 q=42.8 size=       0KiB time=00:00:00.41 bitrate=   0.8kbits/s speed=0.0108x elapsed=0:00:38.42    \nframe=   27 fps=0.7 q=42.8 size=       0KiB time=00:00:00.41 bitrate=   0.8kbits/s speed=0.0107x elapsed=0:00:38.99    \nframe=   27 fps=0.7 q=42.8 size=       0KiB time=00:00:00.41 bitrate=   0.8kbits/s speed=0.0105x elapsed=0:00:39.58    \nframe=   27 fps=0.7 q=42.8 size=       0KiB time=00:00:00.41 bitrate=   0.8kbits/s speed=0.0104x elapsed=0:00:40.15    \nframe=   28 fps=0.7 q=48.0 size=       0KiB time=00:00:00.43 bitrate=   0.8kbits/s speed=0.0106x elapsed=0:00:40.72    \nframe=   28 fps=0.7 q=48.0 size=       0KiB time=00:00:00.43 bitrate=   0.8kbits/s speed=0.0105x elapsed=0:00:41.26    \nframe=   29 fps=0.7 q=48.0 size=       0KiB time=00:00:00.45 bitrate=   0.8kbits/s speed=0.0108x elapsed=0:00:41.84    \nframe=   29 fps=0.7 q=48.0 size=       0KiB time=00:00:00.45 bitrate=   0.8kbits/s speed=0.0106x elapsed=0:00:42.44    \nframe=   29 fps=0.7 q=48.0 size=       0KiB time=00:00:00.45 bitrate=   0.8kbits/s speed=0.0105x elapsed=0:00:42.98    \nframe=   29 fps=0.7 q=48.0 size=       0KiB time=00:00:00.45 bitrate=   0.8kbits/s speed=0.0103x elapsed=0:00:43.53    \nframe=   30 fps=0.7 q=47.1 size=       0KiB time=00:00:00.46 bitrate=   0.8kbits/s speed=0.0106x elapsed=0:00:44.09    \nframe=   30 fps=0.7 q=47.1 size=       0KiB time=00:00:00.46 bitrate=   0.8kbits/s speed=0.0104x elapsed=0:00:44.65    \nframe=   30 fps=0.7 q=47.1 size=       0KiB time=00:00:00.46 bitrate=   0.8kbits/s speed=0.0103x elapsed=0:00:45.24    \nframe=   30 fps=0.7 q=47.1 size=       0KiB time=00:00:00.46 bitrate=   0.8kbits/s speed=0.0102x elapsed=0:00:45.78    \nframe=   31 fps=0.7 q=47.0 size=       0KiB time=00:00:00.48 bitrate=   0.7kbits/s speed=0.0104x elapsed=0:00:46.29    \nframe=   31 fps=0.7 q=47.0 size=       0KiB time=00:00:00.48 bitrate=   0.7kbits/s speed=0.0103x elapsed=0:00:46.81    \nframe=   32 fps=0.7 q=42.5 size=       0KiB time=00:00:00.50 bitrate=   0.7kbits/s speed=0.0106x elapsed=0:00:47.36    \nframe=   32 fps=0.7 q=42.5 size=       0KiB time=00:00:00.50 bitrate=   0.7kbits/s speed=0.0104x elapsed=0:00:47.92    \nframe=   32 fps=0.7 q=42.5 size=       0KiB time=00:00:00.50 bitrate=   0.7kbits/s speed=0.0103x elapsed=0:00:48.46    \nframe=   32 fps=0.7 q=42.5 size=       0KiB time=00:00:00.50 bitrate=   0.7kbits/s speed=0.0102x elapsed=0:00:48.99    \nframe=   33 fps=0.7 q=48.0 size=       0KiB time=00:00:00.51 bitrate=   0.7kbits/s speed=0.0104x elapsed=0:00:49.53    \nframe=   33 fps=0.7 q=48.0 size=       0KiB time=00:00:00.51 bitrate=   0.7kbits/s speed=0.0103x elapsed=0:00:50.09    \nframe=   34 fps=0.7 q=48.0 size=       0KiB time=00:00:00.53 bitrate=   0.7kbits/s speed=0.0105x elapsed=0:00:50.64    \nframe=   34 fps=0.7 q=48.0 size=       0KiB time=00:00:00.53 bitrate=   0.7kbits/s speed=0.0104x elapsed=0:00:51.23    \nframe=   34 fps=0.7 q=48.0 size=       0KiB time=00:00:00.53 bitrate=   0.7kbits/s speed=0.0103x elapsed=0:00:51.82    \nframe=   34 fps=0.6 q=48.0 size=       0KiB time=00:00:00.53 bitrate=   0.7kbits/s speed=0.0102x elapsed=0:00:52.35    \nframe=   34 fps=0.6 q=48.0 size=       0KiB time=00:00:00.53 bitrate=   0.7kbits/s speed=0.0101x elapsed=0:00:52.89    \nframe=   34 fps=0.6 q=48.0 size=       0KiB time=00:00:00.53 bitrate=   0.7kbits/s speed=0.00998x elapsed=0:00:53.44    \nframe=   34 fps=0.6 q=48.0 size=       0KiB time=00:00:00.53 bitrate=   0.7kbits/s speed=0.00988x elapsed=0:00:53.96    \nframe=   34 fps=0.6 q=48.0 size=       0KiB time=00:00:00.53 bitrate=   0.7kbits/s speed=0.00977x elapsed=0:00:54.57    \nframe=   34 fps=0.6 q=48.0 size=       0KiB time=00:00:00.53 bitrate=   0.7kbits/s speed=0.00967x elapsed=0:00:55.15    \nframe=   34 fps=0.6 q=48.0 size=       0KiB time=00:00:00.53 bitrate=   0.7kbits/s speed=0.00958x elapsed=0:00:55.68    \nframe=   34 fps=0.6 q=48.0 size=       0KiB time=00:00:00.53 bitrate=   0.7kbits/s speed=0.00949x elapsed=0:00:56.22    \nframe=   35 fps=0.6 q=48.0 size=       0KiB time=00:00:00.55 bitrate=   0.6kbits/s speed=0.00969x elapsed=0:00:56.77    \nframe=   35 fps=0.6 q=48.0 size=       0KiB time=00:00:00.55 bitrate=   0.6kbits/s speed=0.00958x elapsed=0:00:57.39    \nframe=   35 fps=0.6 q=48.0 size=       0KiB time=00:00:00.55 bitrate=   0.6kbits/s speed=0.00948x elapsed=0:00:58.01    \nframe=   35 fps=0.6 q=48.0 size=       0KiB time=00:00:00.55 bitrate=   0.6kbits/s speed=0.00939x elapsed=0:00:58.58    \nframe=   35 fps=0.6 q=48.0 size=       0KiB time=00:00:00.55 bitrate=   0.6kbits/s speed=0.00929x elapsed=0:00:59.21    \nframe=   36 fps=0.6 q=48.0 size=       0KiB time=00:00:00.56 bitrate=   0.6kbits/s speed=0.00947x elapsed=0:00:59.83    \nframe=   36 fps=0.6 q=48.0 size=       0KiB time=00:00:00.56 bitrate=   0.6kbits/s speed=0.00938x elapsed=0:01:00.39    \nframe=   36 fps=0.6 q=48.0 size=       0KiB time=00:00:00.56 bitrate=   0.6kbits/s speed=0.00929x elapsed=0:01:01.01    \nframe=   37 fps=0.6 q=41.6 size=       0KiB time=00:00:00.58 bitrate=   0.6kbits/s speed=0.00947x elapsed=0:01:01.58    \nframe=   37 fps=0.6 q=41.6 size=       0KiB time=00:00:00.58 bitrate=   0.6kbits/s speed=0.00939x elapsed=0:01:02.11    \nframe=   37 fps=0.6 q=41.6 size=       0KiB time=00:00:00.58 bitrate=   0.6kbits/s speed=0.00931x elapsed=0:01:02.63    \nframe=   38 fps=0.6 q=48.0 size=       0KiB time=00:00:00.60 bitrate=   0.6kbits/s speed=0.0095x elapsed=0:01:03.15    \nframe=   38 fps=0.6 q=48.0 size=       0KiB time=00:00:00.60 bitrate=   0.6kbits/s speed=0.00942x elapsed=0:01:03.72    \nframe=   38 fps=0.6 q=48.0 size=       0KiB time=00:00:00.60 bitrate=   0.6kbits/s speed=0.00933x elapsed=0:01:04.33    \nframe=   38 fps=0.6 q=48.0 size=       0KiB time=00:00:00.60 bitrate=   0.6kbits/s speed=0.00925x elapsed=0:01:04.85    \nframe=   39 fps=0.6 q=48.0 size=       0KiB time=00:00:00.61 bitrate=   0.6kbits/s speed=0.00943x elapsed=0:01:05.37    \nframe=   40 fps=0.6 q=41.9 size=       0KiB time=00:00:00.63 bitrate=   0.6kbits/s speed=0.00961x elapsed=0:01:05.92    \nframe=   40 fps=0.6 q=41.9 size=       0KiB time=00:00:00.63 bitrate=   0.6kbits/s speed=0.00953x elapsed=0:01:06.44    \nframe=   41 fps=0.6 q=47.0 size=       0KiB time=00:00:00.65 bitrate=   0.5kbits/s speed=0.0097x elapsed=0:01:06.97    \nframe=   42 fps=0.6 q=47.0 size=       0KiB time=00:00:00.66 bitrate=   0.5kbits/s speed=0.00987x elapsed=0:01:07.54    \nframe=   43 fps=0.6 q=46.0 size=       0KiB time=00:00:00.68 bitrate=   0.5kbits/s speed=0.01x elapsed=0:01:08.08    \nframe=   43 fps=0.6 q=46.0 size=       0KiB time=00:00:00.68 bitrate=   0.5kbits/s speed=0.00996x elapsed=0:01:08.59    \nframe=   44 fps=0.6 q=46.0 size=       0KiB time=00:00:00.70 bitrate=   0.5kbits/s speed=0.0101x elapsed=0:01:09.14    \nframe=   44 fps=0.6 q=46.0 size=       0KiB time=00:00:00.70 bitrate=   0.5kbits/s speed=0.01x elapsed=0:01:09.66    \nframe=   45 fps=0.6 q=41.3 size=       0KiB time=00:00:00.71 bitrate=   0.5kbits/s speed=0.0102x elapsed=0:01:10.21    \nframe=   46 fps=0.7 q=46.0 size=       0KiB time=00:00:00.73 bitrate=   0.5kbits/s speed=0.0104x elapsed=0:01:10.72    \nframe=   47 fps=0.7 q=46.0 size=       0KiB time=00:00:00.75 bitrate=   0.5kbits/s speed=0.0105x elapsed=0:01:11.25    \nframe=   48 fps=0.7 q=46.0 size=       0KiB time=00:00:00.76 bitrate=   0.5kbits/s speed=0.0107x elapsed=0:01:11.81    \nframe=   49 fps=0.7 q=46.0 size=       0KiB time=00:00:00.78 bitrate=   0.4kbits/s speed=0.0108x elapsed=0:01:12.36    \nframe=   50 fps=0.7 q=40.1 size=       0KiB time=00:00:00.80 bitrate=   0.4kbits/s speed=0.011x elapsed=0:01:12.88    \nframe=   50 fps=0.7 q=40.1 size=       0KiB time=00:00:00.80 bitrate=   0.4kbits/s speed=0.0109x elapsed=0:01:13.45    \nframe=   51 fps=0.7 q=46.0 size=       0KiB time=00:00:00.81 bitrate=   0.4kbits/s speed=0.011x elapsed=0:01:13.97    \nframe=   52 fps=0.7 q=46.0 size=       0KiB time=00:00:00.83 bitrate=   0.4kbits/s speed=0.0112x elapsed=0:01:14.50    \nframe=   53 fps=0.7 q=46.0 size=       0KiB time=00:00:00.85 bitrate=   0.4kbits/s speed=0.0113x elapsed=0:01:15.05    \nframe=   53 fps=0.7 q=46.0 size=       0KiB time=00:00:00.85 bitrate=   0.4kbits/s speed=0.0112x elapsed=0:01:15.57    \nframe=   54 fps=0.7 q=39.8 size=       0KiB time=00:00:00.86 bitrate=   0.4kbits/s speed=0.0114x elapsed=0:01:16.09    \nframe=   55 fps=0.7 q=45.0 size=       0KiB time=00:00:00.88 bitrate=   0.4kbits/s speed=0.0115x elapsed=0:01:16.61    \nframe=   56 fps=0.7 q=45.0 size=       0KiB time=00:00:00.90 bitrate=   0.4kbits/s speed=0.0117x elapsed=0:01:17.13    \nframe=   56 fps=0.7 q=45.0 size=       0KiB time=00:00:00.90 bitrate=   0.4kbits/s speed=0.0116x elapsed=0:01:17.64    \nframe=   56 fps=0.7 q=45.0 size=       0KiB time=00:00:00.90 bitrate=   0.4kbits/s speed=0.0115x elapsed=0:01:18.16    \nframe=   56 fps=0.7 q=45.0 size=       0KiB time=00:00:00.90 bitrate=   0.4kbits/s speed=0.0114x elapsed=0:01:18.70    \nframe=   56 fps=0.7 q=45.0 size=       0KiB time=00:00:00.90 bitrate=   0.4kbits/s speed=0.0114x elapsed=0:01:19.21    \nframe=   56 fps=0.7 q=45.0 size=       0KiB time=00:00:00.90 bitrate=   0.4kbits/s speed=0.0113x elapsed=0:01:19.73    \nframe=   57 fps=0.7 q=44.0 size=       0KiB time=00:00:00.91 bitrate=   0.4kbits/s speed=0.0114x elapsed=0:01:20.25    \nframe=   57 fps=0.7 q=44.0 size=       0KiB time=00:00:00.91 bitrate=   0.4kbits/s speed=0.0113x elapsed=0:01:20.77    \nframe=   58 fps=0.7 q=44.0 size=       0KiB time=00:00:00.93 bitrate=   0.4kbits/s speed=0.0115x elapsed=0:01:21.28    \nframe=   59 fps=0.7 q=38.8 size=       0KiB time=00:00:00.95 bitrate=   0.4kbits/s speed=0.0116x elapsed=0:01:21.83    \nframe=   60 fps=0.7 q=40.4 size=       0KiB time=00:00:00.96 bitrate=   0.4kbits/s speed=0.0117x elapsed=0:01:22.37    \nframe=   60 fps=0.7 q=40.4 size=       0KiB time=00:00:00.96 bitrate=   0.4kbits/s speed=0.0117x elapsed=0:01:22.90    \nframe=   60 fps=0.7 q=40.4 size=       0KiB time=00:00:00.96 bitrate=   0.4kbits/s speed=0.0116x elapsed=0:01:23.44    \nframe=   60 fps=0.7 q=40.4 size=       0KiB time=00:00:00.96 bitrate=   0.4kbits/s speed=0.0115x elapsed=0:01:23.97    \nframe=   60 fps=0.7 q=40.4 size=       0KiB time=00:00:00.96 bitrate=   0.4kbits/s speed=0.0114x elapsed=0:01:24.51    \nframe=   61 fps=0.7 q=44.0 size=       0KiB time=00:00:00.98 bitrate=   0.4kbits/s speed=0.0116x elapsed=0:01:25.06    \nframe=   62 fps=0.7 q=43.0 size=       0KiB time=00:00:00.98 bitrate=   0.4kbits/s speed=0.0115x elapsed=0:01:25.62    \nframe=   62 fps=0.7 q=43.0 size=       0KiB time=00:00:01.00 bitrate=   0.4kbits/s speed=0.0116x elapsed=0:01:26.15    \nframe=   62 fps=0.7 q=43.0 size=       0KiB time=00:00:01.00 bitrate=   0.4kbits/s speed=0.0115x elapsed=0:01:26.67    \nframe=   63 fps=0.7 q=44.0 size=       0KiB time=00:00:01.01 bitrate=   0.3kbits/s speed=0.0117x elapsed=0:01:27.18    \nframe=   64 fps=0.7 q=38.6 size=       0KiB time=00:00:01.03 bitrate=   0.3kbits/s speed=0.0118x elapsed=0:01:27.70    \nframe=   64 fps=0.7 q=38.6 size=       0KiB time=00:00:01.03 bitrate=   0.3kbits/s speed=0.0117x elapsed=0:01:28.24    \nframe=   66 fps=0.7 q=45.0 size=       0KiB time=00:00:01.06 bitrate=   0.3kbits/s speed=0.012x elapsed=0:01:28.77    \nframe=   66 fps=0.7 q=45.0 size=       0KiB time=00:00:01.06 bitrate=   0.3kbits/s speed=0.0119x elapsed=0:01:29.29    \nframe=   68 fps=0.8 q=42.0 size=       0KiB time=00:00:01.10 bitrate=   0.3kbits/s speed=0.0122x elapsed=0:01:29.82    \nframe=   68 fps=0.8 q=42.0 size=       0KiB time=00:00:01.10 bitrate=   0.3kbits/s speed=0.0122x elapsed=0:01:30.35    \nframe=   69 fps=0.8 q=46.2 size=       0KiB time=00:00:01.11 bitrate=   0.3kbits/s speed=0.0123x elapsed=0:01:30.88    \nframe=   69 fps=0.8 q=46.2 size=       0KiB time=00:00:01.11 bitrate=   0.3kbits/s speed=0.0122x elapsed=0:01:31.44    \nframe=   70 fps=0.8 q=42.0 size=       0KiB time=00:00:01.13 bitrate=   0.3kbits/s speed=0.0123x elapsed=0:01:31.98    \nframe=   71 fps=0.8 q=42.0 size=       0KiB time=00:00:01.15 bitrate=   0.3kbits/s speed=0.0124x elapsed=0:01:32.51    \nframe=   72 fps=0.8 q=40.1 size=       0KiB time=00:00:01.16 bitrate=   0.3kbits/s speed=0.0125x elapsed=0:01:33.05    \nframe=   72 fps=0.8 q=40.1 size=       0KiB time=00:00:01.16 bitrate=   0.3kbits/s speed=0.0125x elapsed=0:01:33.57    \nframe=   73 fps=0.8 q=40.1 size=       0KiB time=00:00:01.18 bitrate=   0.3kbits/s speed=0.0126x elapsed=0:01:34.11    \nframe=   74 fps=0.8 q=42.3 size=       0KiB time=00:00:01.20 bitrate=   0.3kbits/s speed=0.0127x elapsed=0:01:34.67    \nframe=   74 fps=0.8 q=42.3 size=       0KiB time=00:00:01.20 bitrate=   0.3kbits/s speed=0.0126x elapsed=0:01:35.20    \nframe=   75 fps=0.8 q=40.2 size=       0KiB time=00:00:01.21 bitrate=   0.3kbits/s speed=0.0127x elapsed=0:01:35.72    \nframe=   75 fps=0.8 q=40.2 size=       0KiB time=00:00:01.21 bitrate=   0.3kbits/s speed=0.0126x elapsed=0:01:36.26    \nframe=   76 fps=0.8 q=40.2 size=       0KiB time=00:00:01.23 bitrate=   0.3kbits/s speed=0.0127x elapsed=0:01:36.78    \nframe=   77 fps=0.8 q=39.5 size=       0KiB time=00:00:01.25 bitrate=   0.3kbits/s speed=0.0128x elapsed=0:01:37.31    \nframe=   77 fps=0.8 q=39.5 size=       0KiB time=00:00:01.25 bitrate=   0.3kbits/s speed=0.0128x elapsed=0:01:37.83    \nframe=   78 fps=0.8 q=39.6 size=       0KiB time=00:00:01.26 bitrate=   0.3kbits/s speed=0.0129x elapsed=0:01:38.37    \nframe=   79 fps=0.8 q=40.6 size=       0KiB time=00:00:01.28 bitrate=   0.3kbits/s speed=0.013x elapsed=0:01:38.89    \nframe=   79 fps=0.8 q=40.6 size=       0KiB time=00:00:01.28 bitrate=   0.3kbits/s speed=0.0129x elapsed=0:01:39.41    \nframe=   80 fps=0.8 q=38.3 size=       0KiB time=00:00:01.30 bitrate=   0.3kbits/s speed=0.013x elapsed=0:01:39.94    \nframe=   80 fps=0.8 q=38.3 size=       0KiB time=00:00:01.30 bitrate=   0.3kbits/s speed=0.0129x elapsed=0:01:40.46    \nframe=   80 fps=0.8 q=38.3 size=       0KiB time=00:00:01.30 bitrate=   0.3kbits/s speed=0.0129x elapsed=0:01:40.99    \nframe=   81 fps=0.8 q=39.3 size=       0KiB time=00:00:01.31 bitrate=   0.3kbits/s speed=0.013x elapsed=0:01:41.53    \nframe=   82 fps=0.8 q=41.5 size=       0KiB time=00:00:01.33 bitrate=   0.3kbits/s speed=0.0131x elapsed=0:01:42.06    \nframe=   83 fps=0.8 q=38.2 size=       0KiB time=00:00:01.35 bitrate=   0.3kbits/s speed=0.0132x elapsed=0:01:42.61    \nframe=   83 fps=0.8 q=38.2 size=       0KiB time=00:00:01.35 bitrate=   0.3kbits/s speed=0.0131x elapsed=0:01:43.15    \nframe=   83 fps=0.8 q=38.2 size=       0KiB time=00:00:01.35 bitrate=   0.3kbits/s speed=0.013x elapsed=0:01:43.68    \nframe=   83 fps=0.8 q=38.2 size=       0KiB time=00:00:01.35 bitrate=   0.3kbits/s speed=0.013x elapsed=0:01:44.21    \nframe=   84 fps=0.8 q=39.3 size=       0KiB time=00:00:01.36 bitrate=   0.3kbits/s speed=0.013x elapsed=0:01:44.73    \nframe=   84 fps=0.8 q=39.3 size=       0KiB time=00:00:01.36 bitrate=   0.3kbits/s speed=0.013x elapsed=0:01:45.26    \nframe=   85 fps=0.8 q=39.0 size=       0KiB time=00:00:01.38 bitrate=   0.3kbits/s speed=0.0131x elapsed=0:01:45.80    \nframe=   85 fps=0.8 q=39.0 size=       0KiB time=00:00:01.38 bitrate=   0.3kbits/s speed=0.013x elapsed=0:01:46.32    \nframe=   86 fps=0.8 q=40.9 size=       0KiB time=00:00:01.40 bitrate=   0.3kbits/s speed=0.0131x elapsed=0:01:46.86    \nframe=   87 fps=0.8 q=39.4 size=       0KiB time=00:00:01.41 bitrate=   0.2kbits/s speed=0.0132x elapsed=0:01:47.39    \nframe=   88 fps=0.8 q=39.3 size=       0KiB time=00:00:01.43 bitrate=   0.2kbits/s speed=0.0133x elapsed=0:01:47.91    \nframe=   88 fps=0.8 q=39.3 size=       0KiB time=00:00:01.43 bitrate=   0.2kbits/s speed=0.0132x elapsed=0:01:48.42    \nframe=   89 fps=0.8 q=41.1 size=       0KiB time=00:00:01.45 bitrate=   0.2kbits/s speed=0.0133x elapsed=0:01:48.95    \nframe=   89 fps=0.8 q=41.1 size=       0KiB time=00:00:01.45 bitrate=   0.2kbits/s speed=0.0132x elapsed=0:01:49.47    \nframe=   89 fps=0.8 q=41.1 size=       0KiB time=00:00:01.45 bitrate=   0.2kbits/s speed=0.0132x elapsed=0:01:50.04    \nframe=   89 fps=0.8 q=41.1 size=       0KiB time=00:00:01.45 bitrate=   0.2kbits/s speed=0.0131x elapsed=0:01:50.59    \nframe=   89 fps=0.8 q=41.1 size=       0KiB time=00:00:01.45 bitrate=   0.2kbits/s speed=0.013x elapsed=0:01:51.11    \nframe=   91 fps=0.8 q=38.7 size=       0KiB time=00:00:01.48 bitrate=   0.2kbits/s speed=0.0133x elapsed=0:01:51.63    \nframe=   91 fps=0.8 q=38.7 size=       0KiB time=00:00:01.48 bitrate=   0.2kbits/s speed=0.0132x elapsed=0:01:52.14    \nframe=   91 fps=0.8 q=38.7 size=       0KiB time=00:00:01.48 bitrate=   0.2kbits/s speed=0.0132x elapsed=0:01:52.68    \nframe=   91 fps=0.8 q=38.7 size=       0KiB time=00:00:01.48 bitrate=   0.2kbits/s speed=0.0131x elapsed=0:01:53.22    \nframe=   91 fps=0.8 q=38.7 size=       0KiB time=00:00:01.48 bitrate=   0.2kbits/s speed=0.013x elapsed=0:01:53.77    \nframe=   92 fps=0.8 q=38.6 size=       0KiB time=00:00:01.50 bitrate=   0.2kbits/s speed=0.0131x elapsed=0:01:54.29    \nframe=   92 fps=0.8 q=38.6 size=       0KiB time=00:00:01.50 bitrate=   0.2kbits/s speed=0.0131x elapsed=0:01:54.82    \nframe=   93 fps=0.8 q=38.5 size=       0KiB time=00:00:01.51 bitrate=   0.2kbits/s speed=0.0131x elapsed=0:01:55.38    \nframe=   93 fps=0.8 q=38.5 size=       0KiB time=00:00:01.51 bitrate=   0.2kbits/s speed=0.0131x elapsed=0:01:55.95    \nframe=   93 fps=0.8 q=38.5 size=       0KiB time=00:00:01.51 bitrate=   0.2kbits/s speed=0.013x elapsed=0:01:56.46    \nframe=   93 fps=0.8 q=38.5 size=       0KiB time=00:00:01.51 bitrate=   0.2kbits/s speed=0.013x elapsed=0:01:56.99    \nframe=   93 fps=0.8 q=38.5 size=       0KiB time=00:00:01.51 bitrate=   0.2kbits/s speed=0.0129x elapsed=0:01:57.52    \nframe=   93 fps=0.8 q=38.5 size=       0KiB time=00:00:01.51 bitrate=   0.2kbits/s speed=0.0128x elapsed=0:01:58.05    \nframe=   93 fps=0.8 q=38.5 size=       0KiB time=00:00:01.51 bitrate=   0.2kbits/s speed=0.0128x elapsed=0:01:58.59    \nframe=   93 fps=0.8 q=38.5 size=       0KiB time=00:00:01.51 bitrate=   0.2kbits/s speed=0.0127x elapsed=0:01:59.11    \nframe=   93 fps=0.8 q=38.5 size=       0KiB time=00:00:01.51 bitrate=   0.2kbits/s speed=0.0127x elapsed=0:01:59.72    \nframe=   93 fps=0.8 q=38.5 size=       0KiB time=00:00:01.51 bitrate=   0.2kbits/s speed=0.0126x elapsed=0:02:00.33    \nframe=   93 fps=0.8 q=38.5 size=       0KiB time=00:00:01.51 bitrate=   0.2kbits/s speed=0.0125x elapsed=0:02:00.92    \nframe=   94 fps=0.8 q=39.9 size=       0KiB time=00:00:01.53 bitrate=   0.2kbits/s speed=0.0126x elapsed=0:02:01.51    \nframe=   94 fps=0.8 q=39.9 size=       0KiB time=00:00:01.53 bitrate=   0.2kbits/s speed=0.0126x elapsed=0:02:02.15    \nframe=   94 fps=0.8 q=39.9 size=       0KiB time=00:00:01.53 bitrate=   0.2kbits/s speed=0.0125x elapsed=0:02:02.81    \nframe=   94 fps=0.8 q=39.9 size=       0KiB time=00:00:01.53 bitrate=   0.2kbits/s speed=0.0124x elapsed=0:02:03.40    \nframe=   94 fps=0.8 q=39.9 size=       0KiB time=00:00:01.53 bitrate=   0.2kbits/s speed=0.0124x elapsed=0:02:03.97    \nframe=   94 fps=0.8 q=39.9 size=       0KiB time=00:00:01.53 bitrate=   0.2kbits/s speed=0.0123x elapsed=0:02:04.58    \nframe=   94 fps=0.8 q=39.9 size=       0KiB time=00:00:01.53 bitrate=   0.2kbits/s speed=0.0123x elapsed=0:02:05.10    \nframe=   94 fps=0.7 q=39.9 size=       0KiB time=00:00:01.53 bitrate=   0.2kbits/s speed=0.0122x elapsed=0:02:05.68    \nframe=   94 fps=0.7 q=39.9 size=       0KiB time=00:00:01.53 bitrate=   0.2kbits/s speed=0.0121x elapsed=0:02:06.28    \nframe=   94 fps=0.7 q=39.9 size=       0KiB time=00:00:01.53 bitrate=   0.2kbits/s speed=0.0121x elapsed=0:02:06.83    \nframe=   95 fps=0.7 q=38.6 size=       0KiB time=00:00:01.55 bitrate=   0.2kbits/s speed=0.0122x elapsed=0:02:07.35    \nframe=   95 fps=0.7 q=38.6 size=       0KiB time=00:00:01.55 bitrate=   0.2kbits/s speed=0.0121x elapsed=0:02:07.91    \nframe=   95 fps=0.7 q=38.6 size=       0KiB time=00:00:01.55 bitrate=   0.2kbits/s speed=0.0121x elapsed=0:02:08.42    \nframe=   95 fps=0.7 q=38.6 size=       0KiB time=00:00:01.55 bitrate=   0.2kbits/s speed=0.012x elapsed=0:02:08.98    \nframe=   96 fps=0.7 q=37.9 size=       0KiB time=00:00:01.56 bitrate=   0.2kbits/s speed=0.0121x elapsed=0:02:09.52    \nframe=   96 fps=0.7 q=37.9 size=       0KiB time=00:00:01.56 bitrate=   0.2kbits/s speed=0.012x elapsed=0:02:10.05    \nframe=   96 fps=0.7 q=37.9 size=       0KiB time=00:00:01.56 bitrate=   0.2kbits/s speed=0.012x elapsed=0:02:10.60    \nframe=   97 fps=0.7 q=38.2 size=       0KiB time=00:00:01.58 bitrate=   0.2kbits/s speed=0.0121x elapsed=0:02:11.13    \nframe=   97 fps=0.7 q=38.2 size=       0KiB time=00:00:01.58 bitrate=   0.2kbits/s speed=0.012x elapsed=0:02:11.65    \nframe=   98 fps=0.7 q=38.1 size=       0KiB time=00:00:01.60 bitrate=   0.2kbits/s speed=0.0121x elapsed=0:02:12.16    \nframe=   99 fps=0.7 q=39.4 size=       0KiB time=00:00:01.61 bitrate=   0.2kbits/s speed=0.0122x elapsed=0:02:12.70    \nframe=   99 fps=0.7 q=39.4 size=       0KiB time=00:00:01.61 bitrate=   0.2kbits/s speed=0.0121x elapsed=0:02:13.21    \nframe=  101 fps=0.8 q=37.6 size=       0KiB time=00:00:01.65 bitrate=   0.2kbits/s speed=0.0123x elapsed=0:02:13.74    \nframe=  101 fps=0.8 q=37.6 size=       0KiB time=00:00:01.65 bitrate=   0.2kbits/s speed=0.0123x elapsed=0:02:14.26    \nframe=  102 fps=0.8 q=37.9 size=       0KiB time=00:00:01.66 bitrate=   0.2kbits/s speed=0.0124x elapsed=0:02:14.77    \nframe=  102 fps=0.8 q=37.9 size=       0KiB time=00:00:01.66 bitrate=   0.2kbits/s speed=0.0123x elapsed=0:02:15.29    \nframe=  103 fps=0.8 q=39.0 size=       0KiB time=00:00:01.68 bitrate=   0.2kbits/s speed=0.0124x elapsed=0:02:15.81    \nframe=  103 fps=0.8 q=39.0 size=       0KiB time=00:00:01.68 bitrate=   0.2kbits/s speed=0.0123x elapsed=0:02:16.33    \nframe=  104 fps=0.8 q=37.1 size=       0KiB time=00:00:01.70 bitrate=   0.2kbits/s speed=0.0124x elapsed=0:02:16.85    \nframe=  104 fps=0.8 q=37.1 size=       0KiB time=00:00:01.70 bitrate=   0.2kbits/s speed=0.0124x elapsed=0:02:17.38    \nframe=  104 fps=0.8 q=37.1 size=       0KiB time=00:00:01.70 bitrate=   0.2kbits/s speed=0.0123x elapsed=0:02:17.91    \nframe=  104 fps=0.8 q=37.1 size=       0KiB time=00:00:01.70 bitrate=   0.2kbits/s speed=0.0123x elapsed=0:02:18.44    \nframe=  105 fps=0.8 q=37.7 size=       0KiB time=00:00:01.71 bitrate=   0.2kbits/s speed=0.0124x elapsed=0:02:18.96    \nframe=  105 fps=0.8 q=37.7 size=       0KiB time=00:00:01.71 bitrate=   0.2kbits/s speed=0.0123x elapsed=0:02:19.50    \nframe=  106 fps=0.8 q=39.7 size=       0KiB time=00:00:01.73 bitrate=   0.2kbits/s speed=0.0124x elapsed=0:02:20.03    \nframe=  107 fps=0.8 q=36.8 size=       0KiB time=00:00:01.75 bitrate=   0.2kbits/s speed=0.0124x elapsed=0:02:20.59    \nframe=  108 fps=0.8 q=38.4 size=       0KiB time=00:00:01.76 bitrate=   0.2kbits/s speed=0.0125x elapsed=0:02:21.13    \nframe=  108 fps=0.8 q=38.4 size=       0KiB time=00:00:01.76 bitrate=   0.2kbits/s speed=0.0125x elapsed=0:02:21.65    \nframe=  109 fps=0.8 q=37.8 size=       0KiB time=00:00:01.78 bitrate=   0.2kbits/s speed=0.0125x elapsed=0:02:22.16    \nframe=  109 fps=0.8 q=37.8 size=       0KiB time=00:00:01.78 bitrate=   0.2kbits/s speed=0.0125x elapsed=0:02:22.70    \nframe=  109 fps=0.8 q=37.8 size=       0KiB time=00:00:01.78 bitrate=   0.2kbits/s speed=0.0124x elapsed=0:02:23.24    \nframe=  110 fps=0.8 q=39.9 size=       0KiB time=00:00:01.80 bitrate=   0.2kbits/s speed=0.0125x elapsed=0:02:23.76    \nframe=  111 fps=0.8 q=37.8 size=     256KiB time=00:00:01.81 bitrate=1154.6kbits/s speed=0.0126x elapsed=0:02:24.29    \nframe=  112 fps=0.8 q=37.5 size=     256KiB time=00:00:01.83 bitrate=1144.1kbits/s speed=0.0127x elapsed=0:02:24.82    \nframe=  112 fps=0.8 q=37.5 size=     256KiB time=00:00:01.83 bitrate=1144.1kbits/s speed=0.0126x elapsed=0:02:25.37    \nframe=  113 fps=0.8 q=37.5 size=     256KiB time=00:00:01.85 bitrate=1133.8kbits/s speed=0.0127x elapsed=0:02:25.92    \nframe=  113 fps=0.8 q=37.5 size=     256KiB time=00:00:01.85 bitrate=1133.8kbits/s speed=0.0126x elapsed=0:02:26.46    \nframe=  114 fps=0.8 q=37.6 size=     256KiB time=00:00:01.86 bitrate=1123.7kbits/s speed=0.0127x elapsed=0:02:26.99    \nframe=  114 fps=0.8 q=37.6 size=     256KiB time=00:00:01.86 bitrate=1123.7kbits/s speed=0.0127x elapsed=0:02:27.53    \nframe=  115 fps=0.8 q=38.9 size=     256KiB time=00:00:01.88 bitrate=1113.7kbits/s speed=0.0127x elapsed=0:02:28.07    \nframe=  115 fps=0.8 q=38.9 size=     256KiB time=00:00:01.88 bitrate=1113.7kbits/s speed=0.0127x elapsed=0:02:28.59    \nframe=  116 fps=0.8 q=36.1 size=     256KiB time=00:00:01.90 bitrate=1103.9kbits/s speed=0.0127x elapsed=0:02:29.13    \nframe=  117 fps=0.8 q=37.5 size=     256KiB time=00:00:01.91 bitrate=1094.3kbits/s speed=0.0128x elapsed=0:02:29.65    \nframe=  117 fps=0.8 q=37.5 size=     256KiB time=00:00:01.91 bitrate=1094.3kbits/s speed=0.0128x elapsed=0:02:30.18    \nframe=  118 fps=0.8 q=37.4 size=     256KiB time=00:00:01.93 bitrate=1084.9kbits/s speed=0.0128x elapsed=0:02:30.71    \nframe=  118 fps=0.8 q=37.4 size=     256KiB time=00:00:01.93 bitrate=1084.9kbits/s speed=0.0128x elapsed=0:02:31.23    \nframe=  118 fps=0.8 q=37.4 size=     256KiB time=00:00:01.93 bitrate=1084.9kbits/s speed=0.0127x elapsed=0:02:31.75    \nframe=  118 fps=0.8 q=37.4 size=     256KiB time=00:00:01.93 bitrate=1084.9kbits/s speed=0.0127x elapsed=0:02:32.28    \nframe=  120 fps=0.8 q=36.6 size=     256KiB time=00:00:01.96 bitrate=1066.5kbits/s speed=0.0129x elapsed=0:02:32.81    \nframe=  120 fps=0.8 q=36.6 size=     256KiB time=00:00:01.96 bitrate=1066.5kbits/s speed=0.0128x elapsed=0:02:33.33    \nframe=  121 fps=0.8 q=35.3 size=     256KiB time=00:00:01.98 bitrate=1057.6kbits/s speed=0.0129x elapsed=0:02:33.89    \nframe=  121 fps=0.8 q=35.3 size=     256KiB time=00:00:01.98 bitrate=1057.6kbits/s speed=0.0128x elapsed=0:02:34.39    \nframe=  122 fps=0.8 q=41.0 size=     256KiB time=00:00:02.00 bitrate=1048.8kbits/s speed=0.0129x elapsed=0:02:34.93    \nframe=  122 fps=0.8 q=41.0 size=     256KiB time=00:00:02.00 bitrate=1048.8kbits/s speed=0.0129x elapsed=0:02:35.46    \nframe=  122 fps=0.8 q=41.0 size=     256KiB time=00:00:02.00 bitrate=1048.8kbits/s speed=0.0128x elapsed=0:02:36.00    \nframe=  122 fps=0.8 q=41.0 size=     256KiB time=00:00:02.00 bitrate=1048.8kbits/s speed=0.0128x elapsed=0:02:36.56    \nframe=  123 fps=0.8 q=40.0 size=     256KiB time=00:00:02.01 bitrate=1040.1kbits/s speed=0.0128x elapsed=0:02:37.09    \nframe=  123 fps=0.8 q=40.0 size=     256KiB time=00:00:02.01 bitrate=1040.1kbits/s speed=0.0128x elapsed=0:02:37.62    \nframe=  124 fps=0.8 q=41.0 size=     256KiB time=00:00:02.03 bitrate=1031.6kbits/s speed=0.0129x elapsed=0:02:38.15    \nframe=  125 fps=0.8 q=37.4 size=     256KiB time=00:00:02.05 bitrate=1023.2kbits/s speed=0.0129x elapsed=0:02:38.71    \nframe=  125 fps=0.8 q=37.4 size=     256KiB time=00:00:02.05 bitrate=1023.2kbits/s speed=0.0129x elapsed=0:02:39.25    \nframe=  126 fps=0.8 q=37.3 size=     256KiB time=00:00:02.06 bitrate=1014.9kbits/s speed=0.0129x elapsed=0:02:39.79    \nframe=  127 fps=0.8 q=42.0 size=     256KiB time=00:00:02.08 bitrate=1006.8kbits/s speed=0.013x elapsed=0:02:40.30    \nframe=  128 fps=0.8 q=41.1 size=     256KiB time=00:00:02.10 bitrate= 998.8kbits/s speed=0.0131x elapsed=0:02:40.82    \nframe=  129 fps=0.8 q=39.1 size=     256KiB time=00:00:02.11 bitrate= 990.9kbits/s speed=0.0131x elapsed=0:02:41.35    \nframe=  129 fps=0.8 q=39.1 size=     256KiB time=00:00:02.11 bitrate= 990.9kbits/s speed=0.0131x elapsed=0:02:41.86    \nframe=  130 fps=0.8 q=35.1 size=     256KiB time=00:00:02.13 bitrate= 983.2kbits/s speed=0.0131x elapsed=0:02:42.39    \nframe=  130 fps=0.8 q=35.1 size=     256KiB time=00:00:02.13 bitrate= 983.2kbits/s speed=0.0131x elapsed=0:02:42.92    \nframe=  131 fps=0.8 q=38.8 size=     256KiB time=00:00:02.15 bitrate= 975.6kbits/s speed=0.0132x elapsed=0:02:43.46    \nframe=  131 fps=0.8 q=38.8 size=     256KiB time=00:00:02.15 bitrate= 975.6kbits/s speed=0.0131x elapsed=0:02:43.98    \nframe=  131 fps=0.8 q=38.8 size=     256KiB time=00:00:02.15 bitrate= 975.6kbits/s speed=0.0131x elapsed=0:02:44.52    \nframe=  131 fps=0.8 q=38.8 size=     256KiB time=00:00:02.15 bitrate= 975.6kbits/s speed=0.013x elapsed=0:02:45.04    \nframe=  131 fps=0.8 q=38.8 size=     256KiB time=00:00:02.15 bitrate= 975.6kbits/s speed=0.013x elapsed=0:02:45.58    \nframe=  131 fps=0.8 q=38.8 size=     256KiB time=00:00:02.15 bitrate= 975.6kbits/s speed=0.0129x elapsed=0:02:46.10    \nframe=  131 fps=0.8 q=38.8 size=     256KiB time=00:00:02.15 bitrate= 975.6kbits/s speed=0.0129x elapsed=0:02:46.63    \nframe=  132 fps=0.8 q=39.1 size=     256KiB time=00:00:02.16 bitrate= 968.1kbits/s speed=0.013x elapsed=0:02:47.17    \nframe=  133 fps=0.8 q=39.3 size=     256KiB time=00:00:02.18 bitrate= 960.7kbits/s speed=0.013x elapsed=0:02:47.71    \nframe=  134 fps=0.8 q=34.8 size=     256KiB time=00:00:02.20 bitrate= 953.4kbits/s speed=0.0131x elapsed=0:02:48.24    \nframe=  135 fps=0.8 q=37.2 size=     256KiB time=00:00:02.21 bitrate= 946.2kbits/s speed=0.0131x elapsed=0:02:48.78    \nframe=  135 fps=0.8 q=37.2 size=     256KiB time=00:00:02.21 bitrate= 946.2kbits/s speed=0.0131x elapsed=0:02:49.30    \nframe=  136 fps=0.8 q=38.1 size=     256KiB time=00:00:02.23 bitrate= 939.2kbits/s speed=0.0131x elapsed=0:02:49.85    \nframe=  136 fps=0.8 q=38.1 size=     256KiB time=00:00:02.23 bitrate= 939.2kbits/s speed=0.0131x elapsed=0:02:50.38    \nframe=  136 fps=0.8 q=38.1 size=     256KiB time=00:00:02.23 bitrate= 939.2kbits/s speed=0.0131x elapsed=0:02:50.94    \nframe=  136 fps=0.8 q=38.1 size=     256KiB time=00:00:02.23 bitrate= 939.2kbits/s speed=0.013x elapsed=0:02:51.47    \nframe=  137 fps=0.8 q=38.2 size=     256KiB time=00:00:02.25 bitrate= 932.2kbits/s speed=0.0131x elapsed=0:02:51.99    \nframe=  137 fps=0.8 q=38.2 size=     256KiB time=00:00:02.25 bitrate= 932.2kbits/s speed=0.013x elapsed=0:02:52.53    \nframe=  138 fps=0.8 q=38.1 size=     256KiB time=00:00:02.26 bitrate= 925.4kbits/s speed=0.0131x elapsed=0:02:53.06    \nframe=  140 fps=0.8 q=37.4 size=     256KiB time=00:00:02.30 bitrate= 912.0kbits/s speed=0.0132x elapsed=0:02:53.58    \nframe=  140 fps=0.8 q=37.4 size=     256KiB time=00:00:02.30 bitrate= 912.0kbits/s speed=0.0132x elapsed=0:02:54.12    \nframe=  141 fps=0.8 q=38.0 size=     256KiB time=00:00:02.31 bitrate= 905.4kbits/s speed=0.0133x elapsed=0:02:54.66    \nframe=  141 fps=0.8 q=38.0 size=     256KiB time=00:00:02.31 bitrate= 905.4kbits/s speed=0.0132x elapsed=0:02:55.18    \nframe=  141 fps=0.8 q=38.0 size=     256KiB time=00:00:02.31 bitrate= 905.4kbits/s speed=0.0132x elapsed=0:02:55.71    \nframe=  141 fps=0.8 q=38.0 size=     256KiB time=00:00:02.31 bitrate= 905.4kbits/s speed=0.0131x elapsed=0:02:56.24    \nframe=  142 fps=0.8 q=38.0 size=     256KiB time=00:00:02.33 bitrate= 898.9kbits/s speed=0.0132x elapsed=0:02:56.78    \nframe=  142 fps=0.8 q=38.0 size=     256KiB time=00:00:02.33 bitrate= 898.9kbits/s speed=0.0132x elapsed=0:02:57.31    \nframe=  143 fps=0.8 q=38.2 size=     256KiB time=00:00:02.35 bitrate= 892.6kbits/s speed=0.0132x elapsed=0:02:57.82    \nframe=  144 fps=0.8 q=34.6 size=     256KiB time=00:00:02.36 bitrate= 886.3kbits/s speed=0.0133x elapsed=0:02:58.36    \nframe=  144 fps=0.8 q=34.6 size=     256KiB time=00:00:02.36 bitrate= 886.3kbits/s speed=0.0132x elapsed=0:02:58.89    \nframe=  144 fps=0.8 q=34.6 size=     256KiB time=00:00:02.36 bitrate= 886.3kbits/s speed=0.0132x elapsed=0:02:59.41    \nframe=  145 fps=0.8 q=33.9 size=     256KiB time=00:00:02.38 bitrate= 880.1kbits/s speed=0.0132x elapsed=0:02:59.95    \nframe=  146 fps=0.8 q=39.1 size=     256KiB time=00:00:02.40 bitrate= 874.0kbits/s speed=0.0133x elapsed=0:03:00.49    \nframe=  146 fps=0.8 q=39.1 size=     256KiB time=00:00:02.40 bitrate= 874.0kbits/s speed=0.0133x elapsed=0:03:01.03    \nframe=  147 fps=0.8 q=38.0 size=     256KiB time=00:00:02.41 bitrate= 867.9kbits/s speed=0.0133x elapsed=0:03:01.56    \nframe=  148 fps=0.8 q=39.3 size=     256KiB time=00:00:02.43 bitrate= 862.0kbits/s speed=0.0134x elapsed=0:03:02.11    \nframe=  149 fps=0.8 q=34.6 size=     256KiB time=00:00:02.45 bitrate= 856.1kbits/s speed=0.0134x elapsed=0:03:02.64    \nframe=  151 fps=0.8 q=39.0 size=     256KiB time=00:00:02.48 bitrate= 844.6kbits/s speed=0.0136x elapsed=0:03:03.17    \nframe=  153 fps=0.8 q=38.0 size=     256KiB time=00:00:02.51 bitrate= 833.4kbits/s speed=0.0137x elapsed=0:03:03.69    \nframe=  154 fps=0.8 q=33.7 size=     256KiB time=00:00:02.53 bitrate= 828.0kbits/s speed=0.0138x elapsed=0:03:04.21    \nframe=  154 fps=0.8 q=33.7 size=     256KiB time=00:00:02.53 bitrate= 828.0kbits/s speed=0.0137x elapsed=0:03:04.80    \nframe=  154 fps=0.8 q=33.7 size=     256KiB time=00:00:02.53 bitrate= 828.0kbits/s speed=0.0137x elapsed=0:03:05.35    \nframe=  154 fps=0.8 q=33.7 size=     256KiB time=00:00:02.53 bitrate= 828.0kbits/s speed=0.0136x elapsed=0:03:05.91    \nframe=  154 fps=0.8 q=33.7 size=     256KiB time=00:00:02.53 bitrate= 828.0kbits/s speed=0.0136x elapsed=0:03:06.44    \nframe=  155 fps=0.8 q=37.7 size=     256KiB time=00:00:02.55 bitrate= 822.6kbits/s speed=0.0136x elapsed=0:03:06.96    \nframe=  156 fps=0.8 q=38.0 size=     256KiB time=00:00:02.56 bitrate= 817.2kbits/s speed=0.0137x elapsed=0:03:07.48    \nframe=  157 fps=0.8 q=38.1 size=     256KiB time=00:00:02.58 bitrate= 811.9kbits/s speed=0.0137x elapsed=0:03:07.99    \nframe=  157 fps=0.8 q=38.1 size=     256KiB time=00:00:02.58 bitrate= 811.9kbits/s speed=0.0137x elapsed=0:03:08.54    \nframe=  158 fps=0.8 q=33.8 size=     256KiB time=00:00:02.60 bitrate= 806.7kbits/s speed=0.0138x elapsed=0:03:09.07    \nframe=  159 fps=0.8 q=36.4 size=     256KiB time=00:00:02.61 bitrate= 801.6kbits/s speed=0.0138x elapsed=0:03:09.63    \nframe=  159 fps=0.8 q=36.4 size=     256KiB time=00:00:02.61 bitrate= 801.6kbits/s speed=0.0138x elapsed=0:03:10.17    \nframe=  159 fps=0.8 q=36.4 size=     256KiB time=00:00:02.61 bitrate= 801.6kbits/s speed=0.0137x elapsed=0:03:10.80    \nframe=  159 fps=0.8 q=36.4 size=     256KiB time=00:00:02.61 bitrate= 801.6kbits/s speed=0.0137x elapsed=0:03:11.39    \nframe=  160 fps=0.8 q=38.0 size=     256KiB time=00:00:02.63 bitrate= 796.5kbits/s speed=0.0137x elapsed=0:03:11.95    \nframe=  160 fps=0.8 q=38.0 size=     256KiB time=00:00:02.63 bitrate= 796.5kbits/s speed=0.0137x elapsed=0:03:12.50    \nframe=  161 fps=0.8 q=37.1 size=     256KiB time=00:00:02.65 bitrate= 791.5kbits/s speed=0.0137x elapsed=0:03:13.01    \nframe=  162 fps=0.8 q=33.7 size=     256KiB time=00:00:02.65 bitrate= 791.5kbits/s speed=0.0137x elapsed=0:03:13.60    \nframe=  163 fps=0.8 q=36.1 size=     256KiB time=00:00:02.68 bitrate= 781.7kbits/s speed=0.0138x elapsed=0:03:14.15    \nframe=  164 fps=0.8 q=37.1 size=     256KiB time=00:00:02.70 bitrate= 776.9kbits/s speed=0.0139x elapsed=0:03:14.71    \nframe=  164 fps=0.8 q=37.1 size=     256KiB time=00:00:02.70 bitrate= 776.9kbits/s speed=0.0138x elapsed=0:03:15.23    \nframe=  164 fps=0.8 q=37.1 size=     256KiB time=00:00:02.70 bitrate= 776.9kbits/s speed=0.0138x elapsed=0:03:15.78    \nframe=  165 fps=0.8 q=37.1 size=     256KiB time=00:00:02.71 bitrate= 772.1kbits/s speed=0.0138x elapsed=0:03:16.32    \nframe=  165 fps=0.8 q=37.1 size=     256KiB time=00:00:02.71 bitrate= 772.1kbits/s speed=0.0138x elapsed=0:03:16.86    \nframe=  165 fps=0.8 q=37.1 size=     256KiB time=00:00:02.71 bitrate= 772.1kbits/s speed=0.0138x elapsed=0:03:17.49    \nframe=  165 fps=0.8 q=37.1 size=     256KiB time=00:00:02.71 bitrate= 772.1kbits/s speed=0.0137x elapsed=0:03:18.03    \nframe=  165 fps=0.8 q=37.1 size=     256KiB time=00:00:02.71 bitrate= 772.1kbits/s speed=0.0137x elapsed=0:03:18.59    \nframe=  165 fps=0.8 q=37.1 size=     256KiB time=00:00:02.71 bitrate= 772.1kbits/s speed=0.0136x elapsed=0:03:19.18    \nframe=  166 fps=0.8 q=37.2 size=     256KiB time=00:00:02.73 bitrate= 767.4kbits/s speed=0.0137x elapsed=0:03:19.79    \nframe=  166 fps=0.8 q=37.2 size=     256KiB time=00:00:02.73 bitrate= 767.4kbits/s speed=0.0136x elapsed=0:03:20.36    \nframe=  166 fps=0.8 q=37.2 size=     256KiB time=00:00:02.73 bitrate= 767.4kbits/s speed=0.0136x elapsed=0:03:20.93    \nframe=  166 fps=0.8 q=37.2 size=     256KiB time=00:00:02.73 bitrate= 767.4kbits/s speed=0.0136x elapsed=0:03:21.55    \nframe=  166 fps=0.8 q=37.2 size=     256KiB time=00:00:02.73 bitrate= 767.4kbits/s speed=0.0135x elapsed=0:03:22.14    \nframe=  167 fps=0.8 q=33.4 size=     256KiB time=00:00:02.75 bitrate= 762.7kbits/s speed=0.0136x elapsed=0:03:22.77    \nframe=  167 fps=0.8 q=33.4 size=     256KiB time=00:00:02.75 bitrate= 762.7kbits/s speed=0.0135x elapsed=0:03:23.31    \nframe=  167 fps=0.8 q=33.4 size=     256KiB time=00:00:02.75 bitrate= 762.7kbits/s speed=0.0135x elapsed=0:03:23.87    \nframe=  167 fps=0.8 q=33.4 size=     256KiB time=00:00:02.75 bitrate= 762.7kbits/s speed=0.0135x elapsed=0:03:24.40    \nframe=  168 fps=0.8 q=33.1 size=     256KiB time=00:00:02.76 bitrate= 758.1kbits/s speed=0.0135x elapsed=0:03:24.95    \nframe=  169 fps=0.8 q=38.0 size=     256KiB time=00:00:02.78 bitrate= 753.6kbits/s speed=0.0135x elapsed=0:03:25.49    \nframe=  169 fps=0.8 q=38.0 size=     256KiB time=00:00:02.78 bitrate= 753.6kbits/s speed=0.0135x elapsed=0:03:26.01    \nframe=  170 fps=0.8 q=33.5 size=     256KiB time=00:00:02.80 bitrate= 749.1kbits/s speed=0.0136x elapsed=0:03:26.52    \nframe=  171 fps=0.8 q=36.1 size=     256KiB time=00:00:02.81 bitrate= 744.7kbits/s speed=0.0136x elapsed=0:03:27.03    \nframe=  171 fps=0.8 q=36.1 size=     256KiB time=00:00:02.81 bitrate= 744.7kbits/s speed=0.0136x elapsed=0:03:27.63    \nframe=  172 fps=0.8 q=38.0 size=     256KiB time=00:00:02.83 bitrate= 740.3kbits/s speed=0.0136x elapsed=0:03:28.15    \nframe=  172 fps=0.8 q=38.0 size=     256KiB time=00:00:02.83 bitrate= 740.3kbits/s speed=0.0136x elapsed=0:03:28.67    \nframe=  174 fps=0.8 q=37.1 size=     256KiB time=00:00:02.86 bitrate= 731.7kbits/s speed=0.0137x elapsed=0:03:29.18    \nframe=  175 fps=0.8 q=33.0 size=     256KiB time=00:00:02.88 bitrate= 727.5kbits/s speed=0.0137x elapsed=0:03:29.72    \nframe=  175 fps=0.8 q=33.0 size=     256KiB time=00:00:02.88 bitrate= 727.5kbits/s speed=0.0137x elapsed=0:03:30.24    \nframe=  175 fps=0.8 q=33.0 size=     256KiB time=00:00:02.88 bitrate= 727.5kbits/s speed=0.0137x elapsed=0:03:30.75    \nframe=  177 fps=0.8 q=37.0 size=     256KiB time=00:00:02.91 bitrate= 719.1kbits/s speed=0.0138x elapsed=0:03:31.27    \nframe=  179 fps=0.8 q=35.8 size=     256KiB time=00:00:02.95 bitrate= 711.0kbits/s speed=0.0139x elapsed=0:03:31.80    \nframe=  179 fps=0.8 q=35.8 size=     256KiB time=00:00:02.95 bitrate= 711.0kbits/s speed=0.0139x elapsed=0:03:32.32    \nframe=  180 fps=0.8 q=37.0 size=     256KiB time=00:00:02.96 bitrate= 707.0kbits/s speed=0.0139x elapsed=0:03:32.87    \nframe=  180 fps=0.8 q=37.0 size=     256KiB time=00:00:02.96 bitrate= 707.0kbits/s speed=0.0139x elapsed=0:03:33.39    \nframe=  182 fps=0.9 q=33.4 size=     256KiB time=00:00:03.00 bitrate= 699.2kbits/s speed=0.014x elapsed=0:03:33.92    \nframe=  182 fps=0.8 q=33.4 size=     256KiB time=00:00:03.00 bitrate= 699.2kbits/s speed=0.014x elapsed=0:03:34.46    \nframe=  182 fps=0.8 q=33.4 size=     256KiB time=00:00:03.00 bitrate= 699.2kbits/s speed=0.014x elapsed=0:03:34.99    \nframe=  183 fps=0.8 q=32.0 size=     256KiB time=00:00:03.01 bitrate= 695.3kbits/s speed=0.014x elapsed=0:03:35.52    \nframe=  183 fps=0.8 q=32.0 size=     256KiB time=00:00:03.01 bitrate= 695.3kbits/s speed=0.014x elapsed=0:03:36.04    \nframe=  184 fps=0.8 q=37.0 size=     256KiB time=00:00:03.03 bitrate= 691.5kbits/s speed=0.014x elapsed=0:03:36.58    \nframe=  184 fps=0.8 q=37.0 size=     256KiB time=00:00:03.03 bitrate= 691.5kbits/s speed=0.014x elapsed=0:03:37.10    \nframe=  185 fps=0.8 q=37.2 size=     256KiB time=00:00:03.05 bitrate= 687.7kbits/s speed=0.014x elapsed=0:03:37.65    \nframe=  187 fps=0.9 q=33.4 size=     256KiB time=00:00:03.08 bitrate= 680.3kbits/s speed=0.0141x elapsed=0:03:38.20    \nframe=  187 fps=0.9 q=33.4 size=     256KiB time=00:00:03.08 bitrate= 680.3kbits/s speed=0.0141x elapsed=0:03:38.72    \nframe=  188 fps=0.9 q=32.6 size=     256KiB time=00:00:03.10 bitrate= 676.6kbits/s speed=0.0141x elapsed=0:03:39.25    \nframe=  188 fps=0.9 q=32.6 size=     256KiB time=00:00:03.10 bitrate= 676.6kbits/s speed=0.0141x elapsed=0:03:39.80    \nframe=  189 fps=0.9 q=38.0 size=     256KiB time=00:00:03.11 bitrate= 673.0kbits/s speed=0.0141x elapsed=0:03:40.34    \nframe=  189 fps=0.9 q=38.0 size=     256KiB time=00:00:03.11 bitrate= 673.0kbits/s speed=0.0141x elapsed=0:03:40.86    \nframe=  189 fps=0.9 q=38.0 size=     256KiB time=00:00:03.11 bitrate= 673.0kbits/s speed=0.0141x elapsed=0:03:41.41    \nframe=  190 fps=0.9 q=37.0 size=     256KiB time=00:00:03.13 bitrate= 669.4kbits/s speed=0.0141x elapsed=0:03:41.95    \nframe=  191 fps=0.9 q=38.1 size=     256KiB time=00:00:03.15 bitrate= 665.9kbits/s speed=0.0142x elapsed=0:03:42.49    \nframe=  191 fps=0.9 q=38.1 size=     256KiB time=00:00:03.15 bitrate= 665.9kbits/s speed=0.0141x elapsed=0:03:43.01    \nframe=  192 fps=0.9 q=33.4 size=     256KiB time=00:00:03.16 bitrate= 662.4kbits/s speed=0.0142x elapsed=0:03:43.53    \nframe=  194 fps=0.9 q=38.1 size=     256KiB time=00:00:03.20 bitrate= 655.5kbits/s speed=0.0143x elapsed=0:03:44.07    \nframe=  194 fps=0.9 q=38.1 size=     256KiB time=00:00:03.20 bitrate= 655.5kbits/s speed=0.0142x elapsed=0:03:44.60    \nframe=  194 fps=0.9 q=38.1 size=     256KiB time=00:00:03.20 bitrate= 655.5kbits/s speed=0.0142x elapsed=0:03:45.13    \nframe=  195 fps=0.9 q=37.1 size=     256KiB time=00:00:03.21 bitrate= 652.1kbits/s speed=0.0143x elapsed=0:03:45.65    \nframe=  196 fps=0.9 q=38.0 size=     256KiB time=00:00:03.23 bitrate= 648.7kbits/s speed=0.0143x elapsed=0:03:46.16    \nframe=  196 fps=0.9 q=38.0 size=     256KiB time=00:00:03.23 bitrate= 648.7kbits/s speed=0.0143x elapsed=0:03:46.68    \nframe=  197 fps=0.9 q=33.4 size=     256KiB time=00:00:03.25 bitrate= 645.4kbits/s speed=0.0143x elapsed=0:03:47.21    \nframe=  197 fps=0.9 q=33.4 size=     256KiB time=00:00:03.25 bitrate= 645.4kbits/s speed=0.0143x elapsed=0:03:47.72    \nframe=  198 fps=0.9 q=37.2 size=     256KiB time=00:00:03.26 bitrate= 642.1kbits/s speed=0.0143x elapsed=0:03:48.26    \nframe=  198 fps=0.9 q=37.2 size=     256KiB time=00:00:03.26 bitrate= 642.1kbits/s speed=0.0143x elapsed=0:03:48.82    \nframe=  198 fps=0.9 q=37.2 size=     256KiB time=00:00:03.26 bitrate= 642.1kbits/s speed=0.0142x elapsed=0:03:49.37    \nframe=  198 fps=0.9 q=37.2 size=     256KiB time=00:00:03.26 bitrate= 642.1kbits/s speed=0.0142x elapsed=0:03:49.91    \nframe=  200 fps=0.9 q=34.1 size=     256KiB time=00:00:03.30 bitrate= 635.6kbits/s speed=0.0143x elapsed=0:03:50.44    \nframe=  201 fps=0.9 q=35.3 size=     256KiB time=00:00:03.31 bitrate= 632.4kbits/s speed=0.0144x elapsed=0:03:50.99    \nframe=  201 fps=0.9 q=35.3 size=     256KiB time=00:00:03.31 bitrate= 632.4kbits/s speed=0.0143x elapsed=0:03:51.53    \nframe=  202 fps=0.9 q=37.0 size=     256KiB time=00:00:03.33 bitrate= 629.3kbits/s speed=0.0144x elapsed=0:03:52.05    \nframe=  202 fps=0.9 q=37.0 size=     256KiB time=00:00:03.33 bitrate= 629.3kbits/s speed=0.0143x elapsed=0:03:52.59    \nframe=  202 fps=0.9 q=37.0 size=     256KiB time=00:00:03.33 bitrate= 629.3kbits/s speed=0.0143x elapsed=0:03:53.13    \nframe=  202 fps=0.9 q=37.0 size=     256KiB time=00:00:03.33 bitrate= 629.3kbits/s speed=0.0143x elapsed=0:03:53.67    \nframe=  202 fps=0.9 q=37.0 size=     256KiB time=00:00:03.33 bitrate= 629.3kbits/s speed=0.0142x elapsed=0:03:54.20    \nframe=  203 fps=0.9 q=37.1 size=     256KiB time=00:00:03.35 bitrate= 626.1kbits/s speed=0.0143x elapsed=0:03:54.72    \nframe=  203 fps=0.9 q=37.1 size=     256KiB time=00:00:03.35 bitrate= 626.1kbits/s speed=0.0142x elapsed=0:03:55.24    \nframe=  203 fps=0.9 q=37.1 size=     256KiB time=00:00:03.35 bitrate= 626.1kbits/s speed=0.0142x elapsed=0:03:55.75    \nframe=  203 fps=0.9 q=37.1 size=     256KiB time=00:00:03.35 bitrate= 626.1kbits/s speed=0.0142x elapsed=0:03:56.30    \nframe=  205 fps=0.9 q=33.2 size=     256KiB time=00:00:03.38 bitrate= 620.0kbits/s speed=0.0143x elapsed=0:03:56.85    \nframe=  205 fps=0.9 q=33.2 size=     256KiB time=00:00:03.38 bitrate= 620.0kbits/s speed=0.0143x elapsed=0:03:57.40    \nframe=  205 fps=0.9 q=33.2 size=     256KiB time=00:00:03.38 bitrate= 620.0kbits/s speed=0.0142x elapsed=0:03:57.95    \nframe=  206 fps=0.9 q=35.7 size=     256KiB time=00:00:03.40 bitrate= 616.9kbits/s speed=0.0143x elapsed=0:03:58.48    \nframe=  206 fps=0.9 q=35.7 size=     256KiB time=00:00:03.40 bitrate= 616.9kbits/s speed=0.0142x elapsed=0:03:59.02    \nframe=  206 fps=0.9 q=35.7 size=     256KiB time=00:00:03.40 bitrate= 616.9kbits/s speed=0.0142x elapsed=0:03:59.54    \nframe=  207 fps=0.9 q=37.0 size=     256KiB time=00:00:03.41 bitrate= 613.9kbits/s speed=0.0142x elapsed=0:04:00.08    \nframe=  207 fps=0.9 q=37.0 size=     256KiB time=00:00:03.41 bitrate= 613.9kbits/s speed=0.0142x elapsed=0:04:00.61    \nframe=  208 fps=0.9 q=37.0 size=     256KiB time=00:00:03.43 bitrate= 610.9kbits/s speed=0.0142x elapsed=0:04:01.15    \nframe=  209 fps=0.9 q=33.0 size=     256KiB time=00:00:03.45 bitrate= 608.0kbits/s speed=0.0143x elapsed=0:04:01.66    \nframe=  210 fps=0.9 q=31.7 size=     512KiB time=00:00:03.45 bitrate=1215.8kbits/s speed=0.0142x elapsed=0:04:02.20    \nframe=  210 fps=0.9 q=31.7 size=     512KiB time=00:00:03.46 bitrate=1210.0kbits/s speed=0.0143x elapsed=0:04:02.74    \nframe=  210 fps=0.9 q=31.7 size=     512KiB time=00:00:03.46 bitrate=1210.0kbits/s speed=0.0142x elapsed=0:04:03.29    \nframe=  212 fps=0.9 q=32.4 size=     512KiB time=00:00:03.50 bitrate=1198.5kbits/s speed=0.0144x elapsed=0:04:03.81    \nframe=  213 fps=0.9 q=36.0 size=     512KiB time=00:00:03.51 bitrate=1192.8kbits/s speed=0.0144x elapsed=0:04:04.34    \nframe=  213 fps=0.9 q=36.0 size=     512KiB time=00:00:03.51 bitrate=1192.8kbits/s speed=0.0144x elapsed=0:04:04.89    \nframe=  213 fps=0.9 q=36.0 size=     512KiB time=00:00:03.51 bitrate=1192.8kbits/s speed=0.0143x elapsed=0:04:05.43    \nframe=  214 fps=0.9 q=38.0 size=     512KiB time=00:00:03.53 bitrate=1187.2kbits/s speed=0.0144x elapsed=0:04:05.96    \nframe=  214 fps=0.9 q=38.0 size=     512KiB time=00:00:03.53 bitrate=1187.2kbits/s speed=0.0143x elapsed=0:04:06.52    \nframe=  214 fps=0.9 q=38.0 size=     512KiB time=00:00:03.53 bitrate=1187.2kbits/s speed=0.0143x elapsed=0:04:07.08    \nframe=  214 fps=0.9 q=38.0 size=     512KiB time=00:00:03.53 bitrate=1187.2kbits/s speed=0.0143x elapsed=0:04:07.62    \nframe=  215 fps=0.9 q=37.0 size=     512KiB time=00:00:03.55 bitrate=1181.6kbits/s speed=0.0143x elapsed=0:04:08.15    \nframe=  215 fps=0.9 q=37.0 size=     512KiB time=00:00:03.55 bitrate=1181.6kbits/s speed=0.0143x elapsed=0:04:08.70    \nframe=  215 fps=0.9 q=37.0 size=     512KiB time=00:00:03.55 bitrate=1181.6kbits/s speed=0.0142x elapsed=0:04:09.25    \nframe=  215 fps=0.9 q=37.0 size=     512KiB time=00:00:03.55 bitrate=1181.6kbits/s speed=0.0142x elapsed=0:04:09.79    \nframe=  215 fps=0.9 q=37.0 size=     512KiB time=00:00:03.55 bitrate=1181.6kbits/s speed=0.0142x elapsed=0:04:10.44    \nframe=  215 fps=0.9 q=37.0 size=     512KiB time=00:00:03.55 bitrate=1181.6kbits/s speed=0.0141x elapsed=0:04:11.09    \nframe=  215 fps=0.9 q=37.0 size=     512KiB time=00:00:03.55 bitrate=1181.6kbits/s speed=0.0141x elapsed=0:04:11.72    \nframe=  215 fps=0.9 q=37.0 size=     512KiB time=00:00:03.55 bitrate=1181.6kbits/s speed=0.0141x elapsed=0:04:12.35    \nframe=  216 fps=0.9 q=37.0 size=     512KiB time=00:00:03.56 bitrate=1176.1kbits/s speed=0.0141x elapsed=0:04:12.90    \nframe=  217 fps=0.9 q=32.3 size=     512KiB time=00:00:03.58 bitrate=1170.6kbits/s speed=0.0141x elapsed=0:04:13.43    \nframe=  217 fps=0.9 q=32.3 size=     512KiB time=00:00:03.58 bitrate=1170.6kbits/s speed=0.0141x elapsed=0:04:13.95    \nframe=  218 fps=0.9 q=32.6 size=     512KiB time=00:00:03.60 bitrate=1165.2kbits/s speed=0.0141x elapsed=0:04:14.47    \nframe=  218 fps=0.9 q=32.6 size=     512KiB time=00:00:03.60 bitrate=1165.2kbits/s speed=0.0141x elapsed=0:04:14.99    \nframe=  218 fps=0.9 q=32.6 size=     512KiB time=00:00:03.60 bitrate=1165.2kbits/s speed=0.0141x elapsed=0:04:15.55    \nframe=  220 fps=0.9 q=32.7 size=     512KiB time=00:00:03.63 bitrate=1154.5kbits/s speed=0.0142x elapsed=0:04:16.07    \nframe=  220 fps=0.9 q=32.7 size=     512KiB time=00:00:03.63 bitrate=1154.5kbits/s speed=0.0142x elapsed=0:04:16.67    \nframe=  220 fps=0.9 q=32.7 size=     512KiB time=00:00:03.63 bitrate=1154.5kbits/s speed=0.0141x elapsed=0:04:17.26    \nframe=  220 fps=0.9 q=32.7 size=     512KiB time=00:00:03.63 bitrate=1154.5kbits/s speed=0.0141x elapsed=0:04:17.81    \nframe=  220 fps=0.9 q=32.7 size=     512KiB time=00:00:03.63 bitrate=1154.5kbits/s speed=0.0141x elapsed=0:04:18.44    \nframe=  220 fps=0.8 q=32.7 size=     512KiB time=00:00:03.63 bitrate=1154.5kbits/s speed=0.014x elapsed=0:04:19.02    \nframe=  220 fps=0.8 q=32.7 size=     512KiB time=00:00:03.63 bitrate=1154.5kbits/s speed=0.014x elapsed=0:04:19.55    \nframe=  220 fps=0.8 q=32.7 size=     512KiB time=00:00:03.63 bitrate=1154.5kbits/s speed=0.014x elapsed=0:04:20.11    \nframe=  221 fps=0.8 q=35.6 size=     512KiB time=00:00:03.65 bitrate=1149.2kbits/s speed=0.014x elapsed=0:04:20.70    \nframe=  221 fps=0.8 q=35.6 size=     512KiB time=00:00:03.65 bitrate=1149.2kbits/s speed=0.014x elapsed=0:04:21.27    \nframe=  221 fps=0.8 q=35.6 size=     512KiB time=00:00:03.65 bitrate=1149.2kbits/s speed=0.0139x elapsed=0:04:21.82    \nframe=  221 fps=0.8 q=35.6 size=     512KiB time=00:00:03.65 bitrate=1149.2kbits/s speed=0.0139x elapsed=0:04:22.42    \nframe=  222 fps=0.8 q=37.0 size=     512KiB time=00:00:03.66 bitrate=1144.0kbits/s speed=0.0139x elapsed=0:04:22.99    \nframe=  222 fps=0.8 q=37.0 size=     512KiB time=00:00:03.66 bitrate=1144.0kbits/s speed=0.0139x elapsed=0:04:23.54    \nframe=  222 fps=0.8 q=37.0 size=     512KiB time=00:00:03.66 bitrate=1144.0kbits/s speed=0.0139x elapsed=0:04:24.12    \nframe=  222 fps=0.8 q=37.0 size=     512KiB time=00:00:03.66 bitrate=1144.0kbits/s speed=0.0139x elapsed=0:04:24.68    \nframe=  223 fps=0.8 q=32.6 size=     512KiB time=00:00:03.68 bitrate=1138.8kbits/s speed=0.0139x elapsed=0:04:25.21    \nframe=  223 fps=0.8 q=32.6 size=     512KiB time=00:00:03.68 bitrate=1138.8kbits/s speed=0.0139x elapsed=0:04:25.82    \nframe=  223 fps=0.8 q=32.6 size=     512KiB time=00:00:03.68 bitrate=1138.8kbits/s speed=0.0138x elapsed=0:04:26.37    \nframe=  224 fps=0.8 q=31.4 size=     512KiB time=00:00:03.70 bitrate=1133.7kbits/s speed=0.0139x elapsed=0:04:26.90    \nframe=  224 fps=0.8 q=31.4 size=     512KiB time=00:00:03.70 bitrate=1133.7kbits/s speed=0.0138x elapsed=0:04:27.46    \nframe=  224 fps=0.8 q=31.4 size=     512KiB time=00:00:03.70 bitrate=1133.7kbits/s speed=0.0138x elapsed=0:04:28.03    \nframe=  224 fps=0.8 q=31.4 size=     512KiB time=00:00:03.70 bitrate=1133.7kbits/s speed=0.0138x elapsed=0:04:28.64    \nframe=  224 fps=0.8 q=31.4 size=     512KiB time=00:00:03.70 bitrate=1133.7kbits/s speed=0.0137x elapsed=0:04:29.20    \nframe=  224 fps=0.8 q=31.4 size=     512KiB time=00:00:03.70 bitrate=1133.7kbits/s speed=0.0137x elapsed=0:04:29.75    \nframe=  224 fps=0.8 q=31.4 size=     512KiB time=00:00:03.70 bitrate=1133.7kbits/s speed=0.0137x elapsed=0:04:30.28    \nframe=  224 fps=0.8 q=31.4 size=     512KiB time=00:00:03.70 bitrate=1133.7kbits/s speed=0.0137x elapsed=0:04:30.82    \nframe=  224 fps=0.8 q=31.4 size=     512KiB time=00:00:03.70 bitrate=1133.7kbits/s speed=0.0136x elapsed=0:04:31.38    \nframe=  224 fps=0.8 q=31.4 size=     512KiB time=00:00:03.70 bitrate=1133.7kbits/s speed=0.0136x elapsed=0:04:31.93    \nframe=  225 fps=0.8 q=37.0 size=     512KiB time=00:00:03.71 bitrate=1128.6kbits/s speed=0.0136x elapsed=0:04:32.45    \nframe=  226 fps=0.8 q=32.4 size=     512KiB time=00:00:03.73 bitrate=1123.6kbits/s speed=0.0137x elapsed=0:04:32.98    \nframe=  226 fps=0.8 q=32.4 size=     512KiB time=00:00:03.73 bitrate=1123.6kbits/s speed=0.0136x elapsed=0:04:33.51    \nframe=  226 fps=0.8 q=32.4 size=     512KiB time=00:00:03.73 bitrate=1123.6kbits/s speed=0.0136x elapsed=0:04:34.06    \nframe=  229 fps=0.8 q=36.0 size=     512KiB time=00:00:03.78 bitrate=1108.7kbits/s speed=0.0138x elapsed=0:04:34.60    \nframe=  229 fps=0.8 q=36.0 size=     512KiB time=00:00:03.78 bitrate=1108.7kbits/s speed=0.0138x elapsed=0:04:35.13    \nframe=  229 fps=0.8 q=36.0 size=     512KiB time=00:00:03.78 bitrate=1108.7kbits/s speed=0.0137x elapsed=0:04:35.66    \nframe=  231 fps=0.8 q=48.7 size=     512KiB time=00:00:03.81 bitrate=1099.0kbits/s speed=0.0138x elapsed=0:04:36.21    \nframe=  231 fps=0.8 q=48.7 size=     512KiB time=00:00:03.81 bitrate=1099.0kbits/s speed=0.0138x elapsed=0:04:36.76    \nframe=  232 fps=0.8 q=51.0 size=     512KiB time=00:00:03.83 bitrate=1094.3kbits/s speed=0.0138x elapsed=0:04:37.38    \nframe=  232 fps=0.8 q=51.0 size=     512KiB time=00:00:03.83 bitrate=1094.3kbits/s speed=0.0138x elapsed=0:04:37.92    \nframe=  232 fps=0.8 q=51.0 size=     512KiB time=00:00:03.83 bitrate=1094.3kbits/s speed=0.0138x elapsed=0:04:38.49    \nframe=  232 fps=0.8 q=51.0 size=     512KiB time=00:00:03.83 bitrate=1094.3kbits/s speed=0.0137x elapsed=0:04:39.13    \nframe=  232 fps=0.8 q=51.0 size=     512KiB time=00:00:03.83 bitrate=1094.3kbits/s speed=0.0137x elapsed=0:04:39.72    \nframe=  233 fps=0.8 q=51.0 size=     512KiB time=00:00:03.85 bitrate=1089.5kbits/s speed=0.0137x elapsed=0:04:40.35    \nframe=  233 fps=0.8 q=51.0 size=     512KiB time=00:00:03.85 bitrate=1089.5kbits/s speed=0.0137x elapsed=0:04:40.88    \nframe=  233 fps=0.8 q=51.0 size=     512KiB time=00:00:03.85 bitrate=1089.5kbits/s speed=0.0137x elapsed=0:04:41.44    \nframe=  234 fps=0.8 q=48.7 size=     512KiB time=00:00:03.86 bitrate=1084.8kbits/s speed=0.0137x elapsed=0:04:42.02    \nframe=  234 fps=0.8 q=48.7 size=     512KiB time=00:00:03.86 bitrate=1084.8kbits/s speed=0.0137x elapsed=0:04:42.62    \nframe=  235 fps=0.8 q=51.0 size=     512KiB time=00:00:03.88 bitrate=1080.2kbits/s speed=0.0137x elapsed=0:04:43.19    \nframe=  235 fps=0.8 q=51.0 size=     512KiB time=00:00:03.88 bitrate=1080.2kbits/s speed=0.0137x elapsed=0:04:43.70    \nframe=  235 fps=0.8 q=51.0 size=     512KiB time=00:00:03.88 bitrate=1080.2kbits/s speed=0.0137x elapsed=0:04:44.23    \nframe=  236 fps=0.8 q=51.0 size=     512KiB time=00:00:03.90 bitrate=1075.6kbits/s speed=0.0137x elapsed=0:04:44.75    \nframe=  237 fps=0.8 q=51.0 size=     512KiB time=00:00:03.91 bitrate=1071.0kbits/s speed=0.0137x elapsed=0:04:45.29    \nframe=  238 fps=0.8 q=47.7 size=     512KiB time=00:00:03.93 bitrate=1066.4kbits/s speed=0.0138x elapsed=0:04:45.82    \nframe=  239 fps=0.8 q=50.0 size=     512KiB time=00:00:03.95 bitrate=1061.9kbits/s speed=0.0138x elapsed=0:04:46.33    \nframe=  239 fps=0.8 q=50.0 size=     512KiB time=00:00:03.95 bitrate=1061.9kbits/s speed=0.0138x elapsed=0:04:46.90    \nframe=  239 fps=0.8 q=50.0 size=     512KiB time=00:00:03.95 bitrate=1061.9kbits/s speed=0.0137x elapsed=0:04:47.44    \nframe=  240 fps=0.8 q=50.0 size=     512KiB time=00:00:03.96 bitrate=1057.5kbits/s speed=0.0138x elapsed=0:04:47.97    \nframe=  241 fps=0.8 q=50.0 size=     512KiB time=00:00:03.98 bitrate=1053.1kbits/s speed=0.0138x elapsed=0:04:48.52    \nframe=  241 fps=0.8 q=50.0 size=     512KiB time=00:00:03.98 bitrate=1053.1kbits/s speed=0.0138x elapsed=0:04:49.05    \nframe=  243 fps=0.8 q=46.7 size=     512KiB time=00:00:04.01 bitrate=1044.3kbits/s speed=0.0139x elapsed=0:04:49.57    \nframe=  243 fps=0.8 q=46.7 size=     512KiB time=00:00:04.01 bitrate=1044.3kbits/s speed=0.0138x elapsed=0:04:50.09    \nframe=  245 fps=0.8 q=45.6 size=     512KiB time=00:00:04.05 bitrate=1035.7kbits/s speed=0.0139x elapsed=0:04:50.61    \nframe=  246 fps=0.8 q=49.0 size=     512KiB time=00:00:04.06 bitrate=1031.5kbits/s speed=0.014x elapsed=0:04:51.14    \nframe=  246 fps=0.8 q=49.0 size=     512KiB time=00:00:04.06 bitrate=1031.5kbits/s speed=0.0139x elapsed=0:04:51.69    \nframe=  247 fps=0.8 q=49.0 size=     512KiB time=00:00:04.06 bitrate=1031.5kbits/s speed=0.0139x elapsed=0:04:52.21    \nframe=  247 fps=0.8 q=49.0 size=     512KiB time=00:00:04.08 bitrate=1027.3kbits/s speed=0.0139x elapsed=0:04:52.76    \nframe=  247 fps=0.8 q=49.0 size=     512KiB time=00:00:04.08 bitrate=1027.3kbits/s speed=0.0139x elapsed=0:04:53.30    \nframe=  247 fps=0.8 q=49.0 size=     512KiB time=00:00:04.08 bitrate=1027.3kbits/s speed=0.0139x elapsed=0:04:53.82    \nframe=  247 fps=0.8 q=49.0 size=     512KiB time=00:00:04.08 bitrate=1027.3kbits/s speed=0.0139x elapsed=0:04:54.36    \nframe=  248 fps=0.8 q=49.0 size=     512KiB time=00:00:04.10 bitrate=1023.1kbits/s speed=0.0139x elapsed=0:04:54.86    \nframe=  249 fps=0.8 q=44.9 size=     512KiB time=00:00:04.11 bitrate=1018.9kbits/s speed=0.0139x elapsed=0:04:55.38    \nframe=  250 fps=0.8 q=48.0 size=     512KiB time=00:00:04.13 bitrate=1014.8kbits/s speed=0.014x elapsed=0:04:55.91    \nframe=  251 fps=0.8 q=49.0 size=     512KiB time=00:00:04.15 bitrate=1010.8kbits/s speed=0.014x elapsed=0:04:56.42    \nframe=  252 fps=0.8 q=40.8 size=     512KiB time=00:00:04.15 bitrate=1010.8kbits/s speed=0.014x elapsed=0:04:56.94    \nframe=  252 fps=0.8 q=40.8 size=     512KiB time=00:00:04.16 bitrate=1006.7kbits/s speed=0.014x elapsed=0:04:57.48    \nframe=  252 fps=0.8 q=40.8 size=     512KiB time=00:00:04.16 bitrate=1006.7kbits/s speed=0.014x elapsed=0:04:58.02    \nframe=  252 fps=0.8 q=40.8 size=     512KiB time=00:00:04.16 bitrate=1006.7kbits/s speed=0.014x elapsed=0:04:58.57    \nframe=  252 fps=0.8 q=40.8 size=     512KiB time=00:00:04.16 bitrate=1006.7kbits/s speed=0.0139x elapsed=0:04:59.10    \nframe=  252 fps=0.8 q=40.8 size=     512KiB time=00:00:04.16 bitrate=1006.7kbits/s speed=0.0139x elapsed=0:04:59.65    \nframe=  253 fps=0.8 q=42.0 size=     512KiB time=00:00:04.18 bitrate=1002.7kbits/s speed=0.0139x elapsed=0:05:00.17    \nframe=  253 fps=0.8 q=42.0 size=     512KiB time=00:00:04.18 bitrate=1002.7kbits/s speed=0.0139x elapsed=0:05:00.71    \nframe=  255 fps=0.8 q=49.0 size=     512KiB time=00:00:04.21 bitrate= 994.8kbits/s speed=0.014x elapsed=0:05:01.25    \nframe=  256 fps=0.8 q=49.4 size=     512KiB time=00:00:04.23 bitrate= 990.9kbits/s speed=0.014x elapsed=0:05:01.80    \nframe=  256 fps=0.8 q=49.4 size=     512KiB time=00:00:04.23 bitrate= 990.9kbits/s speed=0.014x elapsed=0:05:02.30    \nframe=  257 fps=0.8 q=51.0 size=     512KiB time=00:00:04.25 bitrate= 987.0kbits/s speed=0.014x elapsed=0:05:02.84    \nframe=  257 fps=0.8 q=51.0 size=     512KiB time=00:00:04.25 bitrate= 987.0kbits/s speed=0.014x elapsed=0:05:03.36    \nframe=  259 fps=0.9 q=51.0 size=     512KiB time=00:00:04.28 bitrate= 979.3kbits/s speed=0.0141x elapsed=0:05:03.90    \nframe=  261 fps=0.9 q=49.0 size=     512KiB time=00:00:04.31 bitrate= 971.7kbits/s speed=0.0142x elapsed=0:05:04.44    \nframe=  262 fps=0.9 q=50.0 size=     512KiB time=00:00:04.33 bitrate= 968.0kbits/s speed=0.0142x elapsed=0:05:04.96    \nframe=  262 fps=0.9 q=50.0 size=     512KiB time=00:00:04.33 bitrate= 968.0kbits/s speed=0.0142x elapsed=0:05:05.52    \nframe=  263 fps=0.9 q=50.0 size=     512KiB time=00:00:04.35 bitrate= 964.3kbits/s speed=0.0142x elapsed=0:05:06.05    \nframe=  264 fps=0.9 q=49.0 size=     512KiB time=00:00:04.36 bitrate= 960.6kbits/s speed=0.0142x elapsed=0:05:06.58    \nframe=  265 fps=0.9 q=38.2 size=     512KiB time=00:00:04.38 bitrate= 957.0kbits/s speed=0.0143x elapsed=0:05:07.10    \nframe=  265 fps=0.9 q=38.2 size=     512KiB time=00:00:04.38 bitrate= 957.0kbits/s speed=0.0142x elapsed=0:05:07.66    \nframe=  265 fps=0.9 q=38.2 size=     512KiB time=00:00:04.38 bitrate= 957.0kbits/s speed=0.0142x elapsed=0:05:08.21    \nframe=  267 fps=0.9 q=46.0 size=     512KiB time=00:00:04.41 bitrate= 949.7kbits/s speed=0.0143x elapsed=0:05:08.77    \nframe=  267 fps=0.9 q=46.0 size=     512KiB time=00:00:04.41 bitrate= 949.7kbits/s speed=0.0143x elapsed=0:05:09.30    \nframe=  267 fps=0.9 q=46.0 size=     512KiB time=00:00:04.41 bitrate= 949.7kbits/s speed=0.0143x elapsed=0:05:09.84    \nframe=  268 fps=0.9 q=44.3 size=     512KiB time=00:00:04.43 bitrate= 946.2kbits/s speed=0.0143x elapsed=0:05:10.39    \nframe=  269 fps=0.9 q=46.0 size=     512KiB time=00:00:04.45 bitrate= 942.6kbits/s speed=0.0143x elapsed=0:05:10.94    \nframe=  270 fps=0.9 q=46.0 size=     512KiB time=00:00:04.46 bitrate= 939.1kbits/s speed=0.0143x elapsed=0:05:11.48    \nframe=  270 fps=0.9 q=46.0 size=     512KiB time=00:00:04.46 bitrate= 939.1kbits/s speed=0.0143x elapsed=0:05:12.00    \nframe=  270 fps=0.9 q=46.0 size=     512KiB time=00:00:04.46 bitrate= 939.1kbits/s speed=0.0143x elapsed=0:05:12.53    \nframe=  271 fps=0.9 q=37.1 size=     512KiB time=00:00:04.48 bitrate= 935.6kbits/s speed=0.0143x elapsed=0:05:13.07    \nframe=  271 fps=0.9 q=37.1 size=     512KiB time=00:00:04.48 bitrate= 935.6kbits/s speed=0.0143x elapsed=0:05:13.61    \nframe=  271 fps=0.9 q=37.1 size=     512KiB time=00:00:04.48 bitrate= 935.6kbits/s speed=0.0143x elapsed=0:05:14.15    \nframe=  272 fps=0.9 q=44.0 size=     512KiB time=00:00:04.50 bitrate= 932.1kbits/s speed=0.0143x elapsed=0:05:14.67    \nframe=  273 fps=0.9 q=46.0 size=     512KiB time=00:00:04.51 bitrate= 928.7kbits/s speed=0.0143x elapsed=0:05:15.19    \nframe=  273 fps=0.9 q=46.0 size=     512KiB time=00:00:04.51 bitrate= 928.7kbits/s speed=0.0143x elapsed=0:05:15.71    \nframe=  274 fps=0.9 q=38.2 size=     512KiB time=00:00:04.53 bitrate= 925.3kbits/s speed=0.0143x elapsed=0:05:16.26    \nframe=  274 fps=0.9 q=38.2 size=     512KiB time=00:00:04.53 bitrate= 925.3kbits/s speed=0.0143x elapsed=0:05:16.80    \nframe=  275 fps=0.9 q=45.0 size=     512KiB time=00:00:04.55 bitrate= 921.9kbits/s speed=0.0143x elapsed=0:05:17.33    \nframe=  276 fps=0.9 q=45.0 size=     512KiB time=00:00:04.56 bitrate= 918.5kbits/s speed=0.0144x elapsed=0:05:17.85    \nframe=  277 fps=0.9 q=37.1 size=     512KiB time=00:00:04.58 bitrate= 915.2kbits/s speed=0.0144x elapsed=0:05:18.39    \nframe=  277 fps=0.9 q=37.1 size=     512KiB time=00:00:04.58 bitrate= 915.2kbits/s speed=0.0144x elapsed=0:05:18.93    \nframe=  277 fps=0.9 q=37.1 size=     512KiB time=00:00:04.58 bitrate= 915.2kbits/s speed=0.0143x elapsed=0:05:19.45    \nframe=  277 fps=0.9 q=37.1 size=     512KiB time=00:00:04.58 bitrate= 915.2kbits/s speed=0.0143x elapsed=0:05:19.98    \nframe=  277 fps=0.9 q=37.1 size=     512KiB time=00:00:04.58 bitrate= 915.2kbits/s speed=0.0143x elapsed=0:05:20.49    \nframe=  277 fps=0.9 q=37.1 size=     512KiB time=00:00:04.58 bitrate= 915.2kbits/s speed=0.0143x elapsed=0:05:21.03    \nframe=  278 fps=0.9 q=43.0 size=     512KiB time=00:00:04.60 bitrate= 911.9kbits/s speed=0.0143x elapsed=0:05:21.58    \nframe=  278 fps=0.9 q=43.0 size=     512KiB time=00:00:04.60 bitrate= 911.9kbits/s speed=0.0143x elapsed=0:05:22.10    \nframe=  278 fps=0.9 q=43.0 size=     512KiB time=00:00:04.60 bitrate= 911.9kbits/s speed=0.0143x elapsed=0:05:22.64    \nframe=  279 fps=0.9 q=45.0 size=     512KiB time=00:00:04.61 bitrate= 908.6kbits/s speed=0.0143x elapsed=0:05:23.14    \nframe=  280 fps=0.9 q=37.4 size=     512KiB time=00:00:04.63 bitrate= 905.3kbits/s speed=0.0143x elapsed=0:05:23.66    \nframe=  280 fps=0.9 q=37.4 size=     512KiB time=00:00:04.63 bitrate= 905.3kbits/s speed=0.0143x elapsed=0:05:24.20    \nframe=  281 fps=0.9 q=43.0 size=     512KiB time=00:00:04.65 bitrate= 902.1kbits/s speed=0.0143x elapsed=0:05:24.72    \nframe=  282 fps=0.9 q=44.0 size=     512KiB time=00:00:04.66 bitrate= 898.9kbits/s speed=0.0143x elapsed=0:05:25.25    \nframe=  282 fps=0.9 q=44.0 size=     512KiB time=00:00:04.66 bitrate= 898.9kbits/s speed=0.0143x elapsed=0:05:25.77    \nframe=  282 fps=0.9 q=44.0 size=     512KiB time=00:00:04.66 bitrate= 898.9kbits/s speed=0.0143x elapsed=0:05:26.32    \nframe=  282 fps=0.9 q=44.0 size=     512KiB time=00:00:04.66 bitrate= 898.9kbits/s speed=0.0143x elapsed=0:05:26.84    \nframe=  284 fps=0.9 q=44.0 size=     512KiB time=00:00:04.70 bitrate= 892.5kbits/s speed=0.0144x elapsed=0:05:27.38    \nframe=  284 fps=0.9 q=44.0 size=     512KiB time=00:00:04.70 bitrate= 892.5kbits/s speed=0.0143x elapsed=0:05:27.91    \nframe=  286 fps=0.9 q=40.9 size=     512KiB time=00:00:04.73 bitrate= 886.2kbits/s speed=0.0144x elapsed=0:05:28.50    \nframe=  286 fps=0.9 q=40.9 size=     512KiB time=00:00:04.73 bitrate= 886.2kbits/s speed=0.0144x elapsed=0:05:29.03    \nframe=  286 fps=0.9 q=40.9 size=     512KiB time=00:00:04.73 bitrate= 886.2kbits/s speed=0.0144x elapsed=0:05:29.61    \nframe=  286 fps=0.9 q=40.9 size=     512KiB time=00:00:04.73 bitrate= 886.2kbits/s speed=0.0143x elapsed=0:05:30.18    \nframe=  286 fps=0.9 q=40.9 size=     512KiB time=00:00:04.73 bitrate= 886.2kbits/s speed=0.0143x elapsed=0:05:30.80    \nframe=  286 fps=0.9 q=40.9 size=     512KiB time=00:00:04.73 bitrate= 886.2kbits/s speed=0.0143x elapsed=0:05:31.44    \nframe=  288 fps=0.9 q=44.0 size=     512KiB time=00:00:04.76 bitrate= 880.0kbits/s speed=0.0144x elapsed=0:05:32.05    \nframe=  288 fps=0.9 q=44.0 size=     512KiB time=00:00:04.76 bitrate= 880.0kbits/s speed=0.0143x elapsed=0:05:32.66    \nframe=  289 fps=0.9 q=44.0 size=     512KiB time=00:00:04.78 bitrate= 876.9kbits/s speed=0.0144x elapsed=0:05:33.24    \nframe=  289 fps=0.9 q=44.0 size=     512KiB time=00:00:04.78 bitrate= 876.9kbits/s speed=0.0143x elapsed=0:05:33.81    \nframe=  289 fps=0.9 q=44.0 size=     512KiB time=00:00:04.78 bitrate= 876.9kbits/s speed=0.0143x elapsed=0:05:34.37    \nframe=  290 fps=0.9 q=39.8 size=     512KiB time=00:00:04.80 bitrate= 873.9kbits/s speed=0.0143x elapsed=0:05:34.92    \nframe=  291 fps=0.9 q=42.4 size=     512KiB time=00:00:04.81 bitrate= 870.9kbits/s speed=0.0144x elapsed=0:05:35.47    \nframe=  291 fps=0.9 q=42.4 size=     512KiB time=00:00:04.81 bitrate= 870.9kbits/s speed=0.0143x elapsed=0:05:36.01    \nframe=  291 fps=0.9 q=42.4 size=     512KiB time=00:00:04.81 bitrate= 870.9kbits/s speed=0.0143x elapsed=0:05:36.60    \nframe=  292 fps=0.9 q=44.0 size=     512KiB time=00:00:04.83 bitrate= 867.9kbits/s speed=0.0143x elapsed=0:05:37.17    \nframe=  293 fps=0.9 q=43.0 size=     512KiB time=00:00:04.85 bitrate= 864.9kbits/s speed=0.0144x elapsed=0:05:37.77    \nframe=  293 fps=0.9 q=43.0 size=     512KiB time=00:00:04.85 bitrate= 864.9kbits/s speed=0.0143x elapsed=0:05:38.34    \nframe=  293 fps=0.9 q=43.0 size=     512KiB time=00:00:04.85 bitrate= 864.9kbits/s speed=0.0143x elapsed=0:05:38.93    \nframe=  293 fps=0.9 q=43.0 size=     512KiB time=00:00:04.85 bitrate= 864.9kbits/s speed=0.0143x elapsed=0:05:39.53    \nframe=  294 fps=0.9 q=42.0 size=     512KiB time=00:00:04.85 bitrate= 864.9kbits/s speed=0.0143x elapsed=0:05:40.11    \nframe=  294 fps=0.9 q=42.0 size=     512KiB time=00:00:04.86 bitrate= 861.9kbits/s speed=0.0143x elapsed=0:05:40.73    \nframe=  295 fps=0.9 q=38.5 size=     512KiB time=00:00:04.88 bitrate= 859.0kbits/s speed=0.0143x elapsed=0:05:41.29    \nframe=  296 fps=0.9 q=40.8 size=     512KiB time=00:00:04.90 bitrate= 856.1kbits/s speed=0.0143x elapsed=0:05:41.81    \nframe=  296 fps=0.9 q=40.8 size=     512KiB time=00:00:04.90 bitrate= 856.1kbits/s speed=0.0143x elapsed=0:05:42.39    \nframe=  296 fps=0.9 q=40.8 size=     512KiB time=00:00:04.90 bitrate= 856.1kbits/s speed=0.0143x elapsed=0:05:42.97    \nframe=  296 fps=0.9 q=40.8 size=     512KiB time=00:00:04.90 bitrate= 856.1kbits/s speed=0.0143x elapsed=0:05:43.55    \nframe=  297 fps=0.9 q=40.0 size=     512KiB time=00:00:04.90 bitrate= 856.1kbits/s speed=0.0142x elapsed=0:05:44.07    \nframe=  297 fps=0.9 q=40.0 size=     512KiB time=00:00:04.91 bitrate= 853.2kbits/s speed=0.0143x elapsed=0:05:44.66    \nframe=  299 fps=0.9 q=36.2 size=     512KiB time=00:00:04.95 bitrate= 847.4kbits/s speed=0.0143x elapsed=0:05:45.18    \nframe=  299 fps=0.9 q=36.2 size=     512KiB time=00:00:04.95 bitrate= 847.4kbits/s speed=0.0143x elapsed=0:05:45.72    \n[mp4 @ 000001aa8be6cfc0] Starting second pass: moving the moov atom to the beginning of the file\n[out#0/mp4 @ 000001aa8be5ac00] video:763KiB audio:0KiB subtitle:0KiB other streams:0KiB global headers:2KiB muxing overhead: 0.895975%\nframe=  300 fps=0.9 q=40.0 Lsize=     770KiB time=00:00:04.96 bitrate=1270.1kbits/s speed=0.0143x elapsed=0:05:46.22    \nx265 [info]: frame I:      2, Avg QP:47.22  kb/s: 22849.20\nx265 [info]: frame P:     71, Avg QP:39.10  kb/s: 2934.27 \nx265 [info]: frame B:    227, Avg QP:41.74  kb/s: 530.88  \nx265 [info]: Weighted P-Frames: Y:5.6% UV:2.8%\n\nencoded 300 frames in 344.66s (0.87 fps), 1248.47 kb/s, Avg QP:41.15\n",
  "seconds": 347.59104347229004,
  "probe_out": {}
}